<mxfile host="app.diagrams.net" modified="2021-03-28T20:38:25.341Z" agent="5.0 (Windows NT 10.0; Win64; x64) AppleWebKit/537.36 (KHTML, like Gecko) Chrome/89.0.4389.90 Safari/537.36 Edg/89.0.774.57" etag="6BtoU9U1w-JPYbiivSaa" version="14.4.7" type="github" pages="2">
  <diagram id="uHg2M62qo6NZoDfr9aK8" name="Site Connectivity">
    <mxGraphModel dx="766" dy="444" grid="1" gridSize="10" guides="1" tooltips="1" connect="1" arrows="1" fold="1" page="1" pageScale="1" pageWidth="827" pageHeight="1169" math="0" shadow="0">
      <root>
        <mxCell id="0" />
        <mxCell id="1" parent="0" />
        <mxCell id="0S-HL5mt22aXcAo0I6y7-8" value="" style="rounded=0;whiteSpace=wrap;html=1;" vertex="1" parent="1">
          <mxGeometry x="20" y="100" width="300" height="300" as="geometry" />
        </mxCell>
        <mxCell id="0S-HL5mt22aXcAo0I6y7-1" value="Device @Assembly &lt;br&gt;Station A" style="outlineConnect=0;dashed=0;verticalLabelPosition=bottom;verticalAlign=top;align=center;html=1;shape=mxgraph.aws3.hardware_board;fillColor=#5294CF;gradientColor=none;" vertex="1" parent="1">
          <mxGeometry x="240" y="199" width="40" height="51" as="geometry" />
        </mxCell>
        <mxCell id="0S-HL5mt22aXcAo0I6y7-2" value="" style="shape=image;html=1;verticalAlign=top;verticalLabelPosition=bottom;labelBackgroundColor=#ffffff;imageAspect=0;aspect=fixed;image=https://cdn0.iconfinder.com/data/icons/city-elements-18/64/factory-pollution-industry-contamination-industrial-architecture_and_city-buildings-landscape-128.png" vertex="1" parent="1">
          <mxGeometry x="40" y="192" width="128" height="128" as="geometry" />
        </mxCell>
        <mxCell id="0S-HL5mt22aXcAo0I6y7-3" value="" style="endArrow=diamondThin;endFill=1;endSize=24;html=1;entryX=1;entryY=0.25;entryDx=0;entryDy=0;" edge="1" parent="1" source="0S-HL5mt22aXcAo0I6y7-1" target="0S-HL5mt22aXcAo0I6y7-2">
          <mxGeometry width="160" relative="1" as="geometry">
            <mxPoint x="180" y="140" as="sourcePoint" />
            <mxPoint x="340" y="140" as="targetPoint" />
          </mxGeometry>
        </mxCell>
        <mxCell id="0S-HL5mt22aXcAo0I6y7-4" value="Device @Assembly &lt;br&gt;Station ..N" style="outlineConnect=0;dashed=0;verticalLabelPosition=bottom;verticalAlign=top;align=center;html=1;shape=mxgraph.aws3.hardware_board;fillColor=#5294CF;gradientColor=none;" vertex="1" parent="1">
          <mxGeometry x="240" y="289" width="40" height="50" as="geometry" />
        </mxCell>
        <mxCell id="0S-HL5mt22aXcAo0I6y7-5" value="" style="endArrow=diamondThin;endFill=1;endSize=24;html=1;exitX=0;exitY=0.5;exitDx=0;exitDy=0;exitPerimeter=0;" edge="1" parent="1" source="0S-HL5mt22aXcAo0I6y7-4">
          <mxGeometry width="160" relative="1" as="geometry">
            <mxPoint x="50" y="350" as="sourcePoint" />
            <mxPoint x="170" y="314" as="targetPoint" />
          </mxGeometry>
        </mxCell>
        <mxCell id="0S-HL5mt22aXcAo0I6y7-6" value="&lt;font style=&quot;font-size: 12px&quot;&gt;Access Point A&lt;/font&gt;" style="html=1;strokeWidth=1;shadow=0;dashed=0;shape=mxgraph.ios7.misc.wifi;fillColor=#007AFF;strokeColor=none;buttonText=;strokeColor2=#222222;fontColor=#222222;fontSize=8;verticalLabelPosition=bottom;verticalAlign=top;align=center;" vertex="1" parent="1">
          <mxGeometry x="100" y="130" width="33" height="30" as="geometry" />
        </mxCell>
        <mxCell id="0S-HL5mt22aXcAo0I6y7-7" value="&lt;font style=&quot;font-size: 12px&quot;&gt;Access Point ..N&lt;/font&gt;" style="html=1;strokeWidth=1;shadow=0;dashed=0;shape=mxgraph.ios7.misc.wifi;fillColor=#007AFF;strokeColor=none;buttonText=;strokeColor2=#222222;fontColor=#222222;fontSize=8;verticalLabelPosition=bottom;verticalAlign=top;align=center;" vertex="1" parent="1">
          <mxGeometry x="100" y="320" width="33" height="30" as="geometry" />
        </mxCell>
        <mxCell id="0S-HL5mt22aXcAo0I6y7-13" value="Picocell" style="shape=image;verticalLabelPosition=bottom;labelBackgroundColor=#ffffff;verticalAlign=top;aspect=fixed;imageAspect=0;image=data:image/png,iVBORw0KGgoAAAANSUhEUgAAAGQAAABkCAYAAABw4pVUAAAAGXRFWHRTb2Z0d2FyZQBBZG9iZSBJbWFnZVJlYWR5ccllPAAAA4hpVFh0WE1MOmNvbS5hZG9iZS54bXAAAAAAADw/eHBhY2tldCBiZWdpbj0i77u/IiBpZD0iVzVNME1wQ2VoaUh6cmVTek5UY3prYzlkIj8+IDx4OnhtcG1ldGEgeG1sbnM6eD0iYWRvYmU6bnM6bWV0YS8iIHg6eG1wdGs9IkFkb2JlIFhNUCBDb3JlIDUuNi1jMTExIDc5LjE1ODMyNSwgMjAxNS8wOS8xMC0wMToxMDoyMCAgICAgICAgIj4gPHJkZjpSREYgeG1sbnM6cmRmPSJodHRwOi8vd3d3LnczLm9yZy8xOTk5LzAyLzIyLXJkZi1zeW50YXgtbnMjIj4gPHJkZjpEZXNjcmlwdGlvbiByZGY6YWJvdXQ9IiIgeG1sbnM6eG1wTU09Imh0dHA6Ly9ucy5hZG9iZS5jb20veGFwLzEuMC9tbS8iIHhtbG5zOnN0UmVmPSJodHRwOi8vbnMuYWRvYmUuY29tL3hhcC8xLjAvc1R5cGUvUmVzb3VyY2VSZWYjIiB4bWxuczp4bXA9Imh0dHA6Ly9ucy5hZG9iZS5jb20veGFwLzEuMC8iIHhtcE1NOk9yaWdpbmFsRG9jdW1lbnRJRD0ieG1wLmRpZDo3M2RkYWU3Mi03MDhmLTQ3NzUtODUxNy04NDBjODM2NDExYzEiIHhtcE1NOkRvY3VtZW50SUQ9InhtcC5kaWQ6RjUxMzQ0ODhCNDFDMTFFNkJCMThEQTcyM0NBQjk2NEMiIHhtcE1NOkluc3RhbmNlSUQ9InhtcC5paWQ6RjUxMzQ0ODdCNDFDMTFFNkJCMThEQTcyM0NBQjk2NEMiIHhtcDpDcmVhdG9yVG9vbD0iQWRvYmUgUGhvdG9zaG9wIENDIDIwMTUuNSAoTWFjaW50b3NoKSI+IDx4bXBNTTpEZXJpdmVkRnJvbSBzdFJlZjppbnN0YW5jZUlEPSJ4bXAuaWlkOjRkMzczZGU0LWE3NjQtNDY3NS04NjFjLTJkZDEzZjg0ZjFhMSIgc3RSZWY6ZG9jdW1lbnRJRD0iYWRvYmU6ZG9jaWQ6cGhvdG9zaG9wOjA3OWZhNWI0LWZjODctMTE3OS05MjQ1LThkNTYzZjI3ZmZlZiIvPiA8L3JkZjpEZXNjcmlwdGlvbj4gPC9yZGY6UkRGPiA8L3g6eG1wbWV0YT4gPD94cGFja2V0IGVuZD0iciI/PsgYlvMAAApTSURBVHja7F0LsFVVGV4XNbQuYmqS6Q01o1QSSsVQzFEUsQdKKKh4r5pljoqP0lFHqax8PyIVrbBEQU2wHCicG6ZlGiigXKYR34qoPHzgC+kaXG7/N+c/4/Hcs7619uPcvc8965v5x7n++3H2/vb6X+tfi4bOzk4TkB/0Cq8gEBIQCAmEBARCAiEBVcCmSS/wg9Z5NtUtIstELhPZ2IPeWYPI1SKr8d8pI/fLFyEWnKwCfEPkeJHXewAZW4hMExkj0iHymMi/8m6yBopMLvn7UJE2kQNrnIzPiDygZACbiMwQC7FNngnBiJsq0rvs/28v8qDIxTXqtwaIzBcZWvb/+4lcn2dCzhHZi9zrFzpiaglNSsYXLPrjZJR8O4+EfFbkp45jfi/ytxoj5FWRfzuOmSSkfCJvhICMTxH9MyITatBcofp6osgKcgxGzw/zRMjOiICJfqM+1H9r1KGvETnNccxEGSVb5IWQCRp12HCTyKMWXaPmLP0yfum7idxI3skskT87orDxeSCkT0nOUQnvOHzLFD1/IQkIqo3vaE5xushF5LjzRdYT/Vl5IORIkS2J/kod8pUwSuSYkmjmYUQt3Zx1X6Rff5+i6RHZw3L88yJ/YDmYmK29siZkLNG9L/IbkrNcUyETvkPkCocJTAOfFPmjyC+VmCI2E7mcnHetOnobjs6MEHViI8gh09RkVcJRIl8kpmG2iE8oCeJ2EhksskOErHse+Zhgwva06J5zhO5HZDlChjhe2u1Ed4rj2k+J/I/otxP5tchKkZdEFmvOsEzNTqMjalruuD8LY+8kui/Lh7pdVoQMI7pV6igrYVvDa1tLRC4gehQsl4qcqV97KfqL/FzkCbwcy/koDJ4k8ia5x+gyU1aK2YZXsIdlRchXiO4BojvEce8LRTZYdINE7hNxFfVgDueScPoth69A/W2gRfeujkirc8+KkF2JbhHR7UN0L4u0kqjoFkdFoBRNFQKHUtzqMItDiO5xR+aeCSH9HaUS9vXaMIdEMTBze0f8jeP1a6+Et9W52/ClmM/XlBUhfYhuJdHtSHRtRHd4zFyDRYKLHWaL+Ugbts6KkN5E9x7RsQjojZgjMu5Ifj3mB/eBI8fJLDFk+YEhUU5eEDcBbajG8yUlZF3Mr2ttTHP2VMzf+TTRfc6Rr8R5vnVZEfJ+TMf2CtExpz0rxm9sd2TWLOJbEfP51mRFyAssY435pX+LZP9tmpRFwQ2aN9heKisGLo0ZgS3LipDniW4o0c0nOmTxrOJ7qpZIfIBKwU+I/nTHO3gs5vM9mxUhbY7yhu36/xT5kJyLZogtSTi9v3HPc8/QcLed5EJs/uI5YgGaHLnUkqwIeYToPi1yEHHqcxyOfSqJgFAYnOL4bdeQ0LtRCducnH830R3liLDmZUXIYke+0Ux0NyfwT0BLAv1Gx/U7tERjwwlEt2jKyP3WZkKI3HiDw8mOM4UyeSX83eJLYGLQenoeied3JKOviGNNYbLJFpZiIsk2tYzR+TIp3wwi952Z5J2mkRjOIDqYBNb6c7b5eBn7NfU9dzju2exIzIBtNGKzAfUylOmPLMuLEJFNJOdd6Lhv5oS0OuJ1dDPaakILTGHOHXhUc5CFHvds8fxtzR7HILf5usiL+vcZxl6Hw7TBYeRac8VqLM+aEHRhTCZ6lMovJfqJShpMwSqP++3jyHFKgRZPn0Lfk3pdhNTTLcegB+BXjutcl/RlplXL+q3hxTbMzh1MHOgkw+cl4owOownmMZ7HrtHnsAHz/AMdoe7cvBCC2berHMegr7dvwvtsps46CppTeL5BjgQTuEDMVWdeCCkOV2ZydhL5XcJ7fNO4p27LAf8wIME9UUS8x/BmjvuFjNY0XmKahCBS+bFH5LN5gnu0dPN5ALpj2FQ1Kg5npvUS054PudPYK7JT9Qtvj3ntrdVJ28B80PEeYbINk1SsQYmMjqfzSgiAgl15ew0SsO9FcNy2JJOZjXOJrr+Jv6SuQ6PAs0zX1p/5aURW1SbkNXW8GzUkbtEELKnDY2YHLwYd9qurZLYALF37rvloSQU+unEyOjryTkixLHKuJlHTUrjeAHXONkzTL5ll+CgIJl2/MUsrCSt1xL6S9our5pw6kqh/pHStZkdiWizf3O6Ilkan8FvQb4bS+4PVeGm1sCK2wUHIfZoHFZOzJVU0W0V8UK2HrQVCDjS8jafcTLFRghXA2+f5YWuBEDY6UJmdXSH07iDPOz4QEh9wwmwBzEzTdSoY1YK53WC26pKQ0Yb3P00nSagN6NgfHAhJ31xh3sG28ctsY2/9yfUoyTMhcL4jHM7clmy2Gz6TiTajTQMh0TDe8fumO86/jej6OcgOhEQ0V1iuttRxPlpxXqg1s5VXQuB090wwOoyaM1a2wWrZvoEQP7h6qu7yvA5LEjEvMzYQ4sYmhvf23m/8miEALJd+OKZZDIQoDjN8IxpER1FWKDHnfoAp7GQUCEngbIebQnl/W8/rzTR8lrIlEGJHX+O3NcVQjaJ28TgWvcf3En2S6d0eT8jRxr8JAnMSmCn0WSbNnPuuhq/1qGtCopoPNHI/ZArNEyZBIHBCIKQrdlYnGxVw8H8R+T45psORuyD87R0ISS8ExXNgAc8lxB8ws7WVKWymFghRuKZp0Rn/ocd10O6JHd8qrQv5j+G7NrQEQj4eNbHuwAlqznwWe54o8ldTeR6FjZKRputWT3VLCPs60RWITo+FGlH5bH4/Qp19+fw5pnc3kITzuEBIwZmOI/pSZ4xGuJs8r/tVDYtL15JgX5PWPJutPBAySp2qDaVdJacZvr1eOfprAjnM02x9TWT3eieEOXOsRV+mTh9r1yfH+M1Yno1SS3EpM6Z338lrTpI1IXCibA8szGeg+ovFPhcnNItYd362Rmt3O0opveqVEDa3jU75OZr0nZTSs6K99VrDJ66wO9DweiWEOVFEVvcYv13k4KyxBtBns/8fmcLSguV5dO5ZErK7OlEb8K9t7etxnWc1j8EaRyxbftPjHBQxP0/0WHbQWG+EpOE85ylxL5b8vX/J33GB+tiYeiKklzrPJPiTjoi3KowYrCVZUEVz2uMIGW741nouYIvxscRnYCPNg0z0zc5KgfOb6oWQuF8fWnvOMV33SKmEdeoLbo55r4YURnFNENKoLyoq2nVUTIpwTodm9+fXitnKgpAxJvq+ttj24lANg+PgKs151kc8D3WwIT2dkKhf3UsaST2S8L53KanvRjyvuScT0mTcG4+V4nHNMZ5J6f4PKblRtlBiG6HVPCFRWm6wmBNLkFen/BuWKsltnse7NkKraUJ8zRW2SRplEuwQ7cAKJdt3O6XmnkjIEOO38Rj+1bRTTfX3h8eu3Ng75VaPY303QqspQlxf2Xo95rJu/E24J/ZgucRxXJSN0GqCENfGY2j3RJPBdJMNfqbEbMjabHXXOjs0J7xq7F0j2JNqgckWMF1rjf1f+sQSbfyL2Kuq+SMaOjs7TUB+0Cu8gkBIQCAkEBIQCAmEBARCAiEB3Yz/CzAAOE71BlpBuqcAAAAASUVORK5CYII=;shadow=0;" vertex="1" parent="1">
          <mxGeometry x="220" y="111" width="60" height="60" as="geometry" />
        </mxCell>
        <mxCell id="0S-HL5mt22aXcAo0I6y7-14" value="Factory Site" style="text;html=1;strokeColor=none;fillColor=none;align=center;verticalAlign=middle;whiteSpace=wrap;rounded=0;" vertex="1" parent="1">
          <mxGeometry x="128" y="400" width="90" height="20" as="geometry" />
        </mxCell>
        <mxCell id="pht8xzdm1uelEmTHXrsV-2" value="" style="shape=image;verticalLabelPosition=bottom;labelBackgroundColor=#ffffff;verticalAlign=top;aspect=fixed;imageAspect=0;image=data:image/png,iVBORw0KGgoAAAANSUhEUgAAAU8AAADcCAYAAADwSCOrAAAAGXRFWHRTb2Z0d2FyZQBBZG9iZSBJbWFnZVJlYWR5ccllPAAAAyJpVFh0WE1MOmNvbS5hZG9iZS54bXAAAAAAADw/eHBhY2tldCBiZWdpbj0i77u/IiBpZD0iVzVNME1wQ2VoaUh6cmVTek5UY3prYzlkIj8+IDx4OnhtcG1ldGEgeG1sbnM6eD0iYWRvYmU6bnM6bWV0YS8iIHg6eG1wdGs9IkFkb2JlIFhNUCBDb3JlIDUuMy1jMDExIDY2LjE0NTY2MSwgMjAxMi8wMi8wNi0xNDo1NjoyNyAgICAgICAgIj4gPHJkZjpSREYgeG1sbnM6cmRmPSJodHRwOi8vd3d3LnczLm9yZy8xOTk5LzAyLzIyLXJkZi1zeW50YXgtbnMjIj4gPHJkZjpEZXNjcmlwdGlvbiByZGY6YWJvdXQ9IiIgeG1sbnM6eG1wPSJodHRwOi8vbnMuYWRvYmUuY29tL3hhcC8xLjAvIiB4bWxuczp4bXBNTT0iaHR0cDovL25zLmFkb2JlLmNvbS94YXAvMS4wL21tLyIgeG1sbnM6c3RSZWY9Imh0dHA6Ly9ucy5hZG9iZS5jb20veGFwLzEuMC9zVHlwZS9SZXNvdXJjZVJlZiMiIHhtcDpDcmVhdG9yVG9vbD0iQWRvYmUgUGhvdG9zaG9wIENTNiAoV2luZG93cykiIHhtcE1NOkluc3RhbmNlSUQ9InhtcC5paWQ6NEI0ODI5N0FDM0MyMTFFMzlDMkY5OUI4RjVEOEE2RTMiIHhtcE1NOkRvY3VtZW50SUQ9InhtcC5kaWQ6NEI0ODI5N0JDM0MyMTFFMzlDMkY5OUI4RjVEOEE2RTMiPiA8eG1wTU06RGVyaXZlZEZyb20gc3RSZWY6aW5zdGFuY2VJRD0ieG1wLmlpZDo0QjQ4Mjk3OEMzQzIxMUUzOUMyRjk5QjhGNUQ4QTZFMyIgc3RSZWY6ZG9jdW1lbnRJRD0ieG1wLmRpZDo0QjQ4Mjk3OUMzQzIxMUUzOUMyRjk5QjhGNUQ4QTZFMyIvPiA8L3JkZjpEZXNjcmlwdGlvbj4gPC9yZGY6UkRGPiA8L3g6eG1wbWV0YT4gPD94cGFja2V0IGVuZD0iciI/PuMl/1MAABWxSURBVHja7J3dVeNIFoALDu/jjaDFy76OCWAPcgRjIsBEAEQARGCIAHcE0BHYnA0A9+u+oI5g3BH06uLrHQ8LWD91SyXp+87R9ExPNy6V7U+36lbd2vv165cDAIByHMg/9vb26AmAivw7+ec8/yXd+q1lfq3e/DH5vZ9v/v/qX9l/lvRgi+UJAF4ZvvN76QfidSpSkWiWXz82/45YkScAfM7gPbmqWJd6fZdfc6Eu6C7kCQDFotjhG6EuVKhP8u+5UFd0U3j2JGHEnCdAdd6Z8wzNUoX6jcgUeQIgz2qsNiLNr0eiUuQJgDyr8YhIbdinCwA6zTi/7vPrz1zyD/k1oUuIPAGIPKsP7SUivWM5FPIEQJ7VEHneMaxn2A4A5RjqsP4lfwhM8yuhS5AnABRHFupfqETv8yulS5AnAJRjkl9zmY5AosgTAMqTIlHkCQBIFHkCQKMSfSCxhDwBoDyy8H6TnR8gTwCAcmyy8xPkCQBQDok873U+dIg8AQDKkebXc5+G8mzPBPCIiuNtBDbUCE04fuf3ukaWX2ddry2KPAGala1INFGZ/r71713gNr9uurpnHnkCxCnVdEuoqUqVKBR5AkBJmSYq0eOWylQi0GvkCQAxDPdFoqctGuZL+buTXKIZ8gSAWKLScUtEutJh/CPyBIAYRXoe+dD+NhfoJfIEgFiH9ucq0xiXRS10GN/KbDzyBOi+REWck0ij0UwF2rqzlJAnQL9EuhnSpxE1q5XzoMgToJ8SFXleRSZREegMeQIAEi3PLBfoGfIEACTaUYEiTwDYlqjMiU5d84klSSCNYs7EI08AeE+i126dWGpyiVPUAkWeAPCRQF8LHbv1OlEEijwBoKREU5VoU0P5KAVKJXkA+BQtJ3fk1vU5m0B2Ss1jq1BP5AlQPzKbur8KckiU9HPrf6/0917/X9sLAzcchUYVgSJPgPpCmbtyS3yWKtUnt96euGzT9kSNAOWBMemzQJEnQHh5fsRC5fBd/j32upe6rEmi0NDDaXnYHCFPAOT5ESLPR41QFzEO+bUE3oMLX0e08YX0yBMgXnm+RUT6TX6NTaR5H9w3MIxvVKBk2wHaw2aY/Gcuq4f8msTSMJVYaJFN8j64IPIEIPKswkoj0rsYkk5agFn6I+Q8aCPVmIg8AdrNptDxs0i86WhUBS7JnJAin6q0iTwBiDxrkeXXjWtwblSXM0m/DAPe81HI+yXyBOgeiVvPjb5IgY8mduaIxHQ50SzgPc8ZtgOAryH9lUq0kcSKJpJCCXSou72QJwB4k6jMC77owvYuC/Qi1D0iT4B+DecfNLEUNMESWKD3ungfeQKAV1K3zs4HnQ8NKFC5pwfkCQBWXKlE0w4K1Hz+E3kCMJSXYfw0VBQaUKAXlg8G5AkAr6LRKDTIXGhAgT5YPRSQJwBsR6HPoZY1qUCtdyJtzmFCngBgzlQLj4QYxo8CCHRssXwJeQLAu8IJMYzX7ZQnbl3gxJJ73w8D9rYD1EQFM9BrWzZfdCj89vfbhEhNqhY9BujDZ+N7uc3v4xJ5ArRPsonKNFWxpq6543zLYl72TStC3Rvfx0hPA0WeAC0X6kAleqxD5Zhlal65PUBFem/nHyFPgPiiU5HoaaRD/RACfTa+95v8Hq6RJ0D3RXoeWUQqw/dLq9qZet8iUKtsv7T7sG77kSdAO0SaajQ6iaRJpuen69Iiy/3ptSNo5AnQvmh0otHooOHmWAtU9qZbLtg/qnPuE+s8AVpE/mXPdL7u0K2P2mjyCGKZl7TMjt842wX0tQqHEHkCtDsSHWh0dtVgM8ySSAHWf1ZeukTkCdDuSHS1FYk+NtSMiS4xsri/pUagVlR+6BB5AnQrEk11KJ008PKSgb81uq8Xw3uqtAGAyBOgW5GoDEFlEfhtAy8/NTw/yHJtaaXok8gTgCjUJ5LAGtXJYn9yP5bZ99LRJ5EnQPej0JBzoa/nBxmVs7NcXXDOsB0AtgUqCSUp+XYZ8GUl0n2wuBdnlzwalj2yA3kC9EOiMgc6cuHWhaZyOqfRfVit/Sw194k8Afo3jF8Geskro2LKVlF0Wqa9JIwAaqKJDBmqft/67ZVKamWRPKnZXpmPnLswVZsyt94GufJ8D9L+1KC9hRf8I0+AMF/kpV4i2EXTQlWBivQnAV7OawV3bb/lzqN/FJE98gRoJgqSL6dkwZ/kV6viGgXabl18eIO3Cu4B2l6o3idzngDNMNAvvgjgTxGB4QLzDwl4fvq9wfIlq8z7aZE/hDwB4kBEKusjXyRLHejY35ACTZzn4iVSYcqo3UmRBxnyBIiLjWSCSlQFaj0Pe2GQfW8s+kSeAPEO60NLdBRAoFOfP0yjz4VBO8e7+hx5ArRHohPj6FOSVrIbyTJ5lRrch1X0OUGeAN2QqCRd5noUh5VAM41ALbnyGUlrFt8iYj5FngDdIc2vZ8soVNegWu6FF/n7ro50Z9DO4WcPKuQJ0N4o9N5qLlT3kFtWYzr3HH3OjKYbxsgToHtI9Dk32j8uSAY+M3wA+I4+ZyGH7sgToN0MrQSqCSTLCu7nniPnoEN35AnQjWG8yTyoJmNuDdt94bGtEiUvQg3dkSdAd7g3SiTdGA7fzz3/vK+hhu7IEwCBNjl8H3hur0WSa/je9ALyBECgRYfvVtn3c4/tXBm1c4w8AfojUN9JJFn7abEcqPT5QTv4ZtDGY+QJ4Jk82pFalXuby62PupBtjjcaBa0aaprXLLwmZO6M2nrq8WdZRJ7/J3eKIQMEQCV2qsO/JOBLy26hka9iyzr39+LWmXLf/MNjOx/cJwvcK3KoDxAiT4CA0elSjqLIr0O33jse6ix1kfa9x/tYGUafPmVnMXRPGbYDNCvShZ6lLiKdBXjJsecE0q3RVITPZUsLg/YdI0+AOCSaaRHiIHU0fVVjMow+hx7bmBn0KZEnQISRqCSZLCsZDXwO353driOfQ3ff0WeyLXfkCRCPREVIR4ZRqLdCxBp9Wkw5+My6P1lEx8gTIE6BLp1tQmnqsRiH1dDdV/sWFu1DngDxCnSlCSWLyM5bMQ4VvUWUPPbVjwbtO0aeAPFL1OpIYJ+l4CwKcRx7/Fm+o08iT4AeC3RzqJwPLOTuM2n03XffbR48yBOgHQL1PQc68RF9GhXiGHjcVroweEuGyBOgPYhAfc7f+SxEbL6bp4bcM+d/Qf+rPA/4TAKUZ6sKkEgo2RJbtr3/2WP0ucpfUwT67PHHyrKg60iju989/qylLxkrX+QfFAYBKCbLTWGP1G0lDT5gpUKRiOzRV7ELbYdEi1OPt3aSt+/RQ7ueC/RLGTKtA+Cjz6bO72FzsqlhxLAdYEeEmV9zjfguCgpColFJesiOnhc9IjjxFIHeeh6++1qU7jv6TDyuCPjhu23yD+QJ8L40E5XmvOaQTwQwcesD2q49Nc/nNs6xJ0lZzHv6imR9r/VEngAfiHOikWbq8ce+Lg+S4W1dWemRGDOfAo1QUDHL8/Xh2smEUZqOps7v/Mt7fF0s5jMH0t/pliDe9vtvO96L9/Yf/21nSN7Pi1D3YjA/9p4QZCg/0h06VbnRiNYHf9SVsSa0lp6/d198/BBtm+/3sXvyVHFeBHipJ9cj8n5N9Ish1+8qSh+RWVrgtbcjiJX2fSaXT7HK3KRHIe2KQud1BCoZ/fzvP3qKGn1F2L7l6fNnLXyPJA469gWfBBJnX2QpX8xj/dANImjW8O2XXcW60C/uUy7TSpljzWJPAt7LRqCHNbLxd57k+boovWYkLHw3er9jZHjQoS+71+MGeirMps7Z8RE5yXWR38Nmx8vXolGprtmcNtDuV4G6dRm6KtHnIm975um9Sl39ucGlQf/4wvdaz24kjDRKmqO/Sn03yC+RjhzqtVmOk7T4ljbZ7UIPUk3eNPnQHdbMwvvaGuljUbpFYsZX9PnTc9O+7Hfhy5//8hDJsLJt0pQv7YtGXUnHbrForckYHhZ1qhz5qmpUW1I+NwMYRJ++25Z0IfK8d3HPjcQszasOP3R2RmQqrPMI2lq5ypHOU/oQQ6yFOHx9Pr1HxfstF4GIc+ygaH+NdWjeZWkKkoXPCvy5SUT9UKfKkRdheRwi+yTawGi/xSKYuLDZ0bZHmzK18dDB4XkdmZxG1OZBjUDgu8c21KUvS/iG+y2VQerIrJeJNl96FqHvlInuNY8tqvmj4SFpl6e/Ms8/b7DfQhkMNYKC3X117/qZTCsikzTGt6xhMcT4OfFSms6iTOB+y2SwWVZCZn33MF3mNic97YIiX5QkwnYPqlRf8rC4PeoIL9YPWdsiz7kjs14kMn/pcz8VTBYdR9r8JqX+W4TyjJb9FkmBJUnFxDknMoeK8P0qQSu2Z8oOGEdmHXHCpwG3h5/hY/i/cn7Xei4j66P2yFOzxVO+G4gTPkaOhYikHSK7UR/6aL8FUmBJ0ud9lCBOgPBEK0/NrCOF3X3Evv7mh4M+WfHWIE/EaQ9JtPc/P2mBP/YjxrZHtuwIWhh5TpHCTkFIEo19/e+TFPgziwjbveCtQ551pHDtyKzv6iN5sFzREx+yc1eKRnhZZO3+xluHPKtKYYIUCg/XmdL45KNU8M89RtbuR9465Fk1miKzXmy4zpTG5wx13nwXdxG1eWGx/xrsOIhECInjGI0i/VS5aG5oEbh1abJNod7lYjFfvXm/E/fXUcXHzn+hDpkPnu0YussJlPJnJhH02Q2fcORZRQgstynGNOJ+2hy6tnPoqXvPs+2hqn4OxvpwSDy0p+hZ5D7PP6/cd3KYGx9vhu1lYblN8eh8EmHTRH6HuRBPqh77q0Jd5dcsvw7z/zxz9ZM5Y+0ztyv6bDjqW+n9AvIsJQSO0ShObMN1kc5IpZn5/MEiUbc+jrduAqXQ+US5QK9dc8uEzowOToOuypNjNFoddYrUjoqei14jEj2pGRVOCiaOBHmt0AvURZxk2JFnKRmkjsy69wgqEDONNoNES/nrSFR4W/GvizgLFZXR6G8UUKAizhkfbeRZRpwco1EhgopInMHn5/LXvKwxhJ/oZ66MQC2jwRXiRJ5VxMkxGuX7bBJJfy2aEOd2pOaqF80oPMoRgeaXDOEvnf8iHa/l2hAn8qxCqGM0sg69R39E0Abpz5Nmzf06TXBZ8a/LovlSNWFzwclUgSStZp76T6LNIwp/IM8qEVSoJUnyYf/akagzcXGsRjgLNce5Q6Czig/GzBXfdbQt0Cy/JOKV5VM3FV77UaV5SLTZPQ4CSSDUMRqvQ0stLtIFYhDno2VWvQI3O4bhCx0e/9Bfl3XFr2tB5TN1radbpm69kF8KkAzeDMt/btrAEiTkWVecoY7RWDY9tDQghhMeLyPrk0eVZ6bv+fctSWbWL64iJYoEW3kGLPaximVo2bHIcxFCSCWH7vIe7/HVhaYxm/MMXA1edrp0aiJeI/amueMrAhBQnoHFedY1cSpN7/df1dmrDoA8qxHqGI1bzcB2kabnOxEnQEh5BjxGY6Y7T7pK2vDrcyQEQCh5BjxGQ4bpnRVn0e2Exiz4egAEkGfgzPqog5n1bZKGX3/Z8f4FiEOeAY/R6IM4haYjT7YQAljLM/AxGl3NrL/l94Zf/wdfDQD7yDPUnvWzHi2dabqK0oKvBoChPAMeozHr8JKkGIftALCDytszAx6j0XQdyd5FnpaFQPLPjcyNpy1/f0Zl+ki/K6clX2PpeymeJnWnkfft5XtTcxX70LSdBxXfhNSFyax3sdgH9I8kkgfGoAUPrkHkffi/dpYetgc8RkMy6id9WzITwRpPligBFGC/5Bc75DEao9gq+vRhyO5YpgTgX54acYbKrPMlBoD2y1Mz62mANt30LLMOAF2VZ8BjNGZ6TjcAQLvlGfgYjUveEgBovTwDFvvIXD/2rANARzj4RJyh9qz3ckkSAAQJyqyOIc8OPhGn7ARJAtwgmXUAMBGcZQ7lo8gz1DEaZ5yTEx3sq+8ouqW09MmjFbfUyrbqUZf7c/+djhJTTwK89owlSR8ONZpkwFsAUFKeAY/R6GOxj6LRQUYvALRIngErrlDsI3L0ZAAA2CXPrWM0yKwzdBeQJ8AODra+LBT7iEueTQoMeUIXGGqyyydfN7mag4A3ItHmNL+Zrnz5T/N7OS75dy4LLssi8gSoj0X90qe3kWdbb6RpwSQV+qAITR/Adsz3DuBz9umCKFk0PdzhLQBAnm2k6WH7IIKK9gBRc0AXRBh2LuZZLq+Va3bBeupsqspb/MyhY3E/IE/Ykkza4OvLvOetwYPBe9nBjpzICQzbwRNPDb/+WAvEAADybNfoPYI2jHkbABi2t8uci/kignlPqXMw492AlmJxOkWGPNsTfTYZ/SW5wFMtZQbQNlaWn12G7XHzLYI2THkbAJBn24ihUPRQT08FAOTZkjH7uvpUDAK9YtE8APJsG18jaIMkre5ZugSAPNsUfUrkmcUwfM+veUwClbbosTEpnxQIDdn29kSfVxG0YyPQUdMFrXUe9sp1d1umPBh8PxRWnFSLPPuGbJM8j0QUItCX/It90sQSpq1ztpKOv+evDyrfA5n8GvXoe2PxAEKeLRu6r/IPwSz/11iy3gONQEXqN9ZRqE4VTPQBkvCJgAYfQMizhdypQGIaporMJ7ncpG23viWqGX4R5thRNQkYtkPF6DNTSV1F1rSBtkmWM0lySxb2P1YRqUaYMsw6VmESZQLyBC/ENPf5HmO9ZFlT5tZ7i79v/P+OdDdrR49dtWNNAJAnFIo+Ze7zxrVjy+RGhpu9+Ve8g9BFeUqUcNOh+zp29mv/JJIqW3Mz8yDQ21ygfzjWNgI0L089S/26KzcVaOH0U95vTfWZlNl65uML0BzsMGrn8N2iTiEAIM9eCPTWxVFtHqC/w3ZoLSc6fE/oirifdZG0I6v492R7cPD5/Uj78H/s/fr1y+3t7XXqk6pzntbZ3ZsG5zy373Wzi4JF5GGI4n0Hhu1Qf/i+1AgUbJF+PkKcgDy7JVAZ0pzREybITqnLvI+PqEgEyLObAp0hUP/dqtHmLV0ByLP7Aj3RaAmqk0k/5v050jXQAMizBwKV4hwjBFqZG402H+kKQJ79E6jMzR061oGWQaL2Q0kINV0lH9oB6zy7K1ARwCjQsq1Wd5VbLz/iQQNEnvA3iYo8j9x6qQ38XZojnddEnEDkCR8O4496cGgakSYQeYKJRGXJjcyFSlKkb/N6MyJNIPKEOgIVaV7r4W0SicZcmb4umVvvy56x5AiQJ3iVqIp0kv8qBZbHHbg1ua/Xs5RYbgTIE6xFKkPamR7ANm6hSGVOV4biTwgTkGf94doiwGt0MRqd6SUVm1L312mWaUxNVWE+vTabdZnQAJ0sSQc2aPm7xK1Pvfzi/jrkLTES5Caq/Kn/nTF3CcgTuijXt9HpZ2IVKb6NGJdEkdAqeQIAQDn+K8AAIbSUAfooSSMAAAAASUVORK5CYII=;" vertex="1" parent="1">
          <mxGeometry x="320" y="214" width="45" height="29.55" as="geometry" />
        </mxCell>
        <mxCell id="pht8xzdm1uelEmTHXrsV-3" value="" style="shape=image;verticalLabelPosition=bottom;labelBackgroundColor=#ffffff;verticalAlign=top;aspect=fixed;imageAspect=0;image=data:image/png,iVBORw0KGgoAAAANSUhEUgAAASwAAAC1CAYAAADlY8JKAAAAAXNSR0IArs4c6QAAAARnQU1BAACxjwv8YQUAAAAJcEhZcwAADsMAAA7DAcdvqGQAACggSURBVHhe7Z0JmB1VlccjgsuwiJDuquqE4IJjxHGJAwMSs7y61UkQHA3ggjDKqoyI4sIIDBIEIcEk/aqqm5iArDrKpgwDCAISUIKjoiAMmyK7M4CGEBJCwvJl/v/77ut0mtvL61fbq3f+3/f7+vVbqurVq3vq3HvPPWecSCRKR1OWTtnSiWaP7wj997hRpbszVAc6kf8Fp6oWuqH/H07o/9SN/Lvw3AP4u8qNg41upIZHv8dfxc+A+7Cda51IXd4Z+qEXBt9wwsoheH7fjl61pxN3v8VZ2P13404a9xpzSCKRqN21fd+MrTt7Kru6odrPgdGAUVkK43IDjMmD+Lsaf1/yzure6C2bvbHr3DkbvbNnb/SWztrofRf0dW90+2CEYotxGgq+l58BehvcFrbZ9b05G7vOwfaXzNKGzQnVOhjFv2L/d4ArYNgWelV1DB4Hbhjs1LVojzeYryASicqoSdHs103om/X2zlh9AoZjPozUlfB4HnJi9bwHA9JvNGhElsBI0SD10iA1aJSagfviPmnQaChp1GgseWwwbOZ9q+GJ3eNGwQ87q/6J8P72mbjY7xp3ydwtzFcViUStpsmXHrCVE854d0fkHw7DtAz8AayhIaABoCGgYdIeD43EYONRNGg0cZw0pNqQ0TODgdXHHvrPwiu7FUa4B4bsYLevMkm6kyJRwTWpb4bj9qr93KgSoxH/Hl2pdfSYtOeERl7rwrWAcWqEuhHj96QhZreSXlisbnar6tt4PHvn6vQ3mVMkEonyFAeo3dj/HBrmT2Cknuz3oPoNlKWRlxkY5IEGjAYN3tfDeO1cp7f7AHfR9B3NqROJRFlIG6kqjFSsrnRCf5W3rNZForEqnQfVLPTA0PWtDerj/ETqcXAejVfX4llvNqdUJBIlKa9X7dAZqU87cXCZExkjxXEoDo63mxc1Vuh90QM1xgvn8RGcu97OyJ8pg/YiUQJy4+690NUL0bgerQ82i5FKABov7Xnp2cdX0K1egZvB0V40Z4I59SKRaDSatGTq9k6oPgOjdIMb+S/1d2fESKUDu40M54DHivP+FLrZZ3VEwR7m5xCJRDbtGAa7oLGcCiP1YL0B6Wl7WyMTkgc3hFqXEec9VC/C67rCidWHJURCJBog3NV3QwM524nUSgZIijdVAOh1MVi1L9jo9Kpb0CXfXwyXqK01PgymonFcAjb0z/LZGo+QH/XuIgfpxXCJ2lGbDJX/Uv0u/qqGIhQLDtLXDVcEw9WDrqJIVGY51Zn/hIt/k6GS8anWwxiu2k3G/6/xUeWD5ucVicohtxpMxsV+jhMF67yzzfo3W2MQWgczxgVva70XVZZ0VGfsbH5ukag15Szcs8PpDb7FwXSPM0/S9Ssf+E21txwHjztVdcyUI6dsaX5+kah1ZOKoHuhiNLoMppcejm2xq+jEarkX+x8yl4FIVGx1RZUP4gK+QUelcwGy5eIWSgrjuBh8Gqv1+H+BuSREouKJKYXR9VvoxP4LOuBT4qjaF3YTeQ30qQXM6mouEZGoGHKrwVxcqPfqrJgyTiUYPC6pitVvvB6lzKUiEuWnHXqmubgwl+kZo6y6f/TcCGcaR4KpZurvt21LSBVeE13n782MqD8yl4xIlI+0VxWr+7RXReNguWDHhDFGzLNeH8jlLJTOa85CEEwrQ+PYb5CGpv55HmPXuXvXEvvhcS0AEnAygB4h3287FmHM8NyjS/gXLw6OMJeMSJS9vDPUDnDzz9JGpVmvqm6cYDhoiLRB4dhH7fXncGf+sxv5v8BjLt+pOlFlnhuqf3VC/zAuynVjf86QVP05XqgO7KxWjvAi/8tOqE5xq5WY28Lj5Q66sHj8DB5vYLoaZoTQ+6cxoyHTBnHAsQqjA+dN38Ri9ciO4fRdzGUjEmUvr8f/EC7KO5qKUqeBwt1Xp4ypGaeXYIQeh2G63omCxTBGR3fESjEQUQ/YnnRS8uvWNsJDXLbvGzlR4EaVDzg9/v7Y73FO5PfBkN0MQ/kEjutF3aWpGzHm4Brrd24T6p6vF6nzJJBUlKvg2rNuny7qYLtYhwReis4xDuNEI4XnXoJxegDez4WdkfoiwyC2XaC2M7vJXyeNe822y9R2nbG/Oz05HGsIVuC4V+tyYDS0PAe6K2n5vu3IJq/qPhp/cyZFouzlLZo2ERflj72lJtOn7YK1oMegYKTY1YPH8iw9KDx/PDOI6qrGraR5017rLZo10Qv9j6EL+R14Yr+GJ7ZWe14cE2MXsk3HwbTxpucZBxF+1w5zxkSi7OVWK9PQOO83d0/rBbsZ7A6YRoz/V4OrnGrlqPFR5W1mk+XQ0ilbetXK38MQf97t5ZiY/xSNlva+tPGynJuyYW5ITqxud8LK3ubMiET5yKmqo9AY145mYL3eWLWXEavb0JC/6vWqd5hNlV7Oku4OVpR2ouACeGBPaaPN8Tl2Gy3nq6VhFx/ettOrXnCj4MxCdedF7aeuY/d4Axpenw4JoLdgu2gJL1wYM3pT8ML+5lbVuZ19gc/uk9lUW2qn3sBzwuAQeB5Xo9v4PL1TbfRL0GXk9VCbKPFXuOGMqeYri0T5yA2DnWCIrtNdwKFmxBjfRA8CjZDdRS/0T+joUW81mxANkBN2v9uL1Sk4T/foGwAb+1Dntcjw5sRjj9WzXuyfMPHkaa83X1Ekykdujz8FDeve2h10iIuWhooBgXHwOy/uPmy7aM625uOJiwPzb17sdzHpHxrJRzsi//BOGEd4f6eiy7kUx7TMDdV58GLoyVyjCdWFMLpL4e2dg/8XwhP4Jgzql1jPsDMM/M6+yq7bzJ+6/eRLD9jK7CYTvenMD27jxpVP1SYe/Jd1kYcW6S5qr4oD66H6udsT/KP5SiJRfnJ6/H3RhXlaX5iDL9p614+vxepXTl/w8a5Fe7zBfLR5XTJ3Cxomxl65YeVY7DNGo74BRulBPbvI6i0c4MX+69HuHC+rwVnITdAz7H9Nv3dv/Zw2svguMGLrOECO7f8exvkybHu+V60cwayZWVVBZuoVGNELcRxr+2cYB5/zIkBPWntVwdNeGHxJ8riLCiFvsX+Y26teqDfqgfC5LoYlMFgUHlUiXYF50147IQx2caPgYBikCA13BQzIKu5PGxwd7V7z5PqDNfW0+ebHNmr4OY4fcRs0fPQYzNhbPSgU73sJ/B+9CHpmHEB3F1YmpVkNeULovwf7qoKVRTNc+twvYZdf/ZjdWnPIIlG+grE4Tjfiwd0TPodGhIb+ON/T7EwQu47Y7mwYj/n4+ysYqDVsEIWIIqdBw77rXR99TDXjsRpe2C9hVE/H49k7V6e/yXydRMXwiIGGK9euIs8Dj6FXPcIlTeYQRaL8xQBI77tomAMbCLt/6Aag8WxAY+3jILx5e8OqGamZ/+xFagkM1INsDOyqaY+G+yzyrBm7Q4zOpwHDMfPYcb4exmvnOr3dB7iLpu9ovmZi0nFdkb8M5/75mtHI9vzomUzeOGL/B7KsRlQYTT558lYctNZdwAGNQncDaEx0t2jmdPP2xoQuFC76adg+l7M86J5ljNSgfbUcOHZ+h/7vEvlPcGAfr82eFM1+nfn2iYhrG7HdS2o3D/weY+0KjxZ8Nz0rHAf34yYly2pExZExVt83g6m1C5beRK0b8Bd0/44ey+DqpL4ZDj+Lba1AA3u5v2EX2YsaKzxfxngZI3wHzunJSQfKulF3N7ytW/R4mzaSlmNpEn2D4m8UBkt3ODPwzK5Fovy1ubEyFywaghlcvZxdEvPWUcurdr8PXaUebOsv3K5uAK3sSTUKPS8YFO2hcClSqP4D5zgwp6dpTT75gK3w2xzlxerhRLuJHKOsXQd3OWEgy2pExdKrjBW7G7VuwP92RpUjzdtGLV25OVQXowuhx1v0IHXaXZeCo8e8aueU3NQV+p9MKvzDi6ZPcGL/LJzjV/RNwbL/0cJlNdjOi1xWw5g0swuRqBgabKx0FgVc9LhzX9vZU9nVvG1UwgU/G43xCmxPSswPBb0uepu6S6xu74zUoV2L9k/EcHX2zfSdWP1Wl05r8Nzr1Di8BqJghdNTqZhNikTFEbsUmxkrzgTFaoMb+Sc2EmOkPSo9EIzGmGTXpMzwXOHGUDvngTZcSQzQcwUAl/vgd1xnvCX7/uvwd6/9/mv5uUSDfkWiJAUvaokeX4GB0XfXWD3g9lS6zcsjikGD6Padjwu/5lGJoWocGgwaLnblYnVbUjNxbs/MvegtDedt1WPLcNO6yQnVbuajIlHxpOOsOKiuu4A0VujKLRhdXJVz+tTxLDGPBvaMdP0Som64YERwI7mGy4HM6R6z6C15oToN216vPbn+ffV7wk/j8VeZv8t8RCQqnpyq+ro2VpwS55hKrE4bbdqXjtA/yO2t1Rg0Ed9CkpgxLhit9TA0vXoJUJPiwm5s627tbfE312EQ/lWyrEZUeHVVK4fqRqHvsGoluoAHm5eGFS9uXPRX1g2dtbENBcdR2F3kfunRsSvCMlpsPMR0ifr/NyW2dFfGfE5vw7btssLzxN8oVo+5Vf9z5mcYs5ieWCcQ7A0e7oxUwzO/IlHm6grVPmgA67keDo3ijyzwYF4aWkdO2dKJ1dfxudpaNk7L2xpYHRoWNjYaNtzRuS/tjdH4hD4r4DznRP7f4EHch7v8XXjubnRPbyF8zOf4Gt/D92KbL2pDZ7bFY9BGrW7MbMdQIvpvEKG6jil+zK8yZrE7bx6KRMXVjovU+9EAVnadt/dGJ/SXO3H3W8xLQ4oNBA3lxvrYyuDGpKkbKDQqHcGOvzBwL8AAPYz9/BRGKGLdPxZo8KpqT7evMompWlhGi9kdJp4/7fW6VBfgYz7H1/R78F5dnSby93XC4GgYszNhzH6M/d6tjRkMlt4njRi7OWU1YBzfgsHGzWIVbx68iZifSCQqn968gIGFwf00Vrj4L95m3siZBfC+Y9lAzJT3qxsQu2w0FDBmMCLPg9thWPqcqv/ZrnjWe5mUzmwqcXEwuaM6e2caMhzP8fxOePwIHr+kDRjHamhgBx93i6PPOc43byJJeFsiUeHE2B4Ynp93nQ9jFfnhtBEG13dkLiqOVbHbNcir0uNPpksGA/W0y4owkToKxuJdjOkym8hFtayd3XvhOI/HMV0LVurvwOMtk/Ea4G2Br25/8oytzSkQiVpfuBufrcesqv43zVNDylvsfwwN4tFaTJbpXtUDHPkcx59iJm0LDpm42O8yHyuk9HIVHKcxqk9r40XPi2Nfg41AC8LvwuyqLDZrvrJI1NpyWU6LXbYe/zjzlFUm4v10j8ZJT3mjUXCg23gnTuz/DhzXqqW5aFy18YrUVfiea/QkAAxYv1FuMWoellrN8aw08+aLRJkJDTMAG2CEhs0MyWRsXqSu0Y2Ag9am24fu48vsGqJRz510TLI5nfIU10duVqmG37VVBus3/TYrWHzDfCWRqLU1fvGMt+OifpAFFMxTVnk9/odwl35AG6tNjWG9E6pLWQzBvK2U2r5vxtYsmIHvfzWNs16iVODuYs0jrGVRcOdNeaP5GiJRa4uDsG7Irk/wefOUVZ3V4Ah4Fqv1uA4NFhotDdXE2N/dvKVthHM11WNJsCJWqmHoBo1pHNzdyDpPkaglBGN1Ei70YSOZ8fq32R3SZbA4RhX516bmUW1k/vbdt3WrwWTsdzaMwmGsH4jHCzghgL/LNqP23AJOEuhy+KHaj+vqdugNPHfevql6FoMr1eTtcekua22G82xGqpvDFInKoc7qjBlutfIp8++rxAFar1ddxFglE+1+Nwt4mpcTke5qnaV2c2P/czBOZ8FrWw4egxF4Xs84omujo98Jj8MGXzvXxFOx8AEj5CN/FbZ3P475J2BBZ6gOZDmwNKoMm0o1S9BdzKXgA89TzatSj+K7H2QOSyQqj5wl3R3DJV7jND8aw40TLvwwGoK/xouCU7eet0cixUHdeMY7tYGKggtgWB7CfjZwdpLGR4dEcOaR3gobfiPxUHwvZ/LwOZ2xkx4HjBgNmt5m5K8BdzlRZQkbdtKhFgzORFfxQhzLK7WCD+kbLnpUOgQjDi4b/53K28yhiETl0hSmCEH3yyYGdsJbuIfGCl7K8iRKiuttRv6/waj8DH/XskFrA0VD0qhhGgs0HpwooMdm9ovvthL7vZKLhRkJbw61aXVW1QwYxutZ9kwPftuOp1nqAaG96m/oMn/J7FqUkRhNTVed0+E2RBlJl4WKg7+icb9MA9NM7qOdeqa52N6RaFzXsYunB6jZyOg9pW2gRoLdTXon7EYCGK+/4pguxvNzmYXTfIWm5ISVQ2CM/5T0jCKDWWvpif2bZMlN9mI3Yzm4C/xhCG4GV4Nr2pzrwFyQirzqzFloWGvQaH/fTNxORxTsAWPXhwZVq35TN1KWxlcI6K3QeNGwcNA6UnfDwB4/mgXfI2knDv7HuhLQizrxoW3/DaDXBjLBXqhOSbqGoWh0OhCwcyKMDp6vxNVZSyXzPDyC7203bwzR0CeNe01nb+UjMFL/hYb1Yn1GkcZgcKMrNPS8OCYE40WvC13jnvHV7veZbzlmcbwQ2/9vbcDHYrz7wxXUnVL0IV9dCmwNU3g168BkkKi82P+oG6rH0CiGjcWyCoYK3tT+Tq+6hZWZtTeV9SxZStS8rjkwXGot/j+n2YybDLPAds6A0dnQyNiWfq8e5wuiNMrai0YvB/wN2Bqn8GoeAYmutnd6/P3hFf2i4biqAYZKz8bprko5DNVgdNaJcxjW4a9CV3GhF82ZYM7CmDQwBfGw5wyvaa8qUn+Gt3eA+bgoR3EpiK1hCnZuBKPKpT4aMUkeGsMPG50hw2dmo+GW3lANRntc6OrC23kUHumxzZS4YmCnFwUX6O5nbdzs1ftagnMb+hcnkaddlIw4kG5rmIKdCCSizmrlI27VP2PbBWo789SI6orU++FVXcbuyYhxRnyN76N3ohsfYOO0wdcZ8MmxHd31sWyvQNQNtRP7v8b/s83pGZO8qjoG33kdz4PevglX8HrVU5JLvVhikNtqYGuYgp1jQNNyerorThwcPVJyvrqY17szDk5HY1pjjeSGcdKGCY2OXZj+QM1QvYKuzFp4YyvhKfwRXao/gLsG4oTqf2AEmY99Nd63vmYMB+Rjp5dBQ1Y0L46Gpe5dcnlQOLqSZzZ1oYvoxcFDPHd6m5F/vRPOkAo1BdOxwNYoBTsvgaYXs3bo9W/+vubfEQVP7FP1Ml0uvSDTWGlE2Li0YWGXplYA4k40th/g8Ulu7B/kLJ45nRlJmW+dsU31nOwDYbdq0pJ9tteR9T3+lM5etU9/PvYqk/+pe2n0uA+9LzZobcAGGI88gYHVhqY3eMgL1ZhncHdcpN7hxGq5GwXfHG0JNVG2+jmwNUzBznNgzHdxatL8qduzSIP5d1ixAcFo/Eh319hdoUfB5S7srrA7xLV+kb8Cxmk+B4Q5DpZGXBBn1jwcCw2nEwWL4andxn3zGLQHRmNZAOOlo9p5riJ10Q5nBp45/MbEX1lUSO0KOEU/uFEKQ3MvaG7h7iVztzCPhlVH5B8OI/BE3SDUjQOMxbNonFfBYOi87KPdXqKC98HFxjBgR+BYNqUz5rHS87IYk8ww3hY8pfsY12aOWFQCnQhsjVIYmstBquJsFBreJbowKceRaKTovcTqNjz/lfFR8RbXDkhn/J/w+AakMx5kTDLE7P8VPF6QRnYIUbZi//w2YGuUwtDMB6mJBSW8OHiYpb24OBiNf7Vb9X/Q2Rf4rTKmsimdsbpXe10c7xo8QZAVnDygtxWpm91o1gd0LUVRS2oPwAHkwQ1SGJ7PgMRFDwCNaiHHYGqlvdSTTqh6mALGvKXltN283bfloD++yy/15MBIAZppAS+vi+l5QvWnHXpmu+bwRC2m04CtQQpDswGMXCa+Qem8VJG/YsJF+7Bxre4M1fxmpucLp7lzt9CzjsyQygkDelwZdRXrY39u6N+kS/zLzF9LirNIdwJboxSGhsuXEk1561aDuei2rDLxUmdzINu8VErBw8L3VbfqriK/s8XIJAIMos7K0KuehaFsKj2PKH/NBC8DW6MUhuY3ILFKyU4UnKoDMnuDWzqqak/zdOnFsAtdTCNWieeoIpyl1OsDQ3VrEkkPRflrMbA1SGF4vg+als7RHvqXc9kHPIC2XfZRz1HlxOoF7Q01202se1WxWsdB/2bWGIqKI2YZuB/YGqQwPAwDaUqMOHeZlSFSV3f0qLeap9tabjhjqhsFK+gVjTWGq9+rwnbcnpl7mU2LSqA5wNYYheF5BXwcjFlu3L2XG/o3OqF/tHlKZERviF6RG/vwttBNthglK+JVlV7fBbYGKQzPC4ArA8YkJ6zs7UT++W6vjKkMJ657hPG5sxYsO7y3JV5V+cW87Y8DW4MUhucJ0HjKYqir6s/xQv+EnavT32SeEg0jZvPsz1E1RBfReGEbvFCdJl5VebUfsDVGYWS4SLzhGJ6uxcEeXjX4iPlX1IDcqPI1eKTrNwt/gAFjAKoTqdudWHKql10XAltjFEamDzQkDqp3La681/wrGoM8JjiM1ZP9S3xitQFdwDMbSXgoak0xb/vTwNYYhZH5MmhIUv4pGekajZH6o9ur7hCvqn10MLA1xDRgypqVBYNR6vcB1l1shLsBazJOA60mZijguOW7wAywNzgUHG7gukg+x8IXfA/fW0gju9PS2e42MgbYVvoJsBmXpOF6OzYOXvxF442AjXgsFF3bAC5oZ4mwheA/AQ3uX8HzgGEZtt+LcNUD38P33gGuANzGIYAVjXneRKLMxGofWeVtZ3VoUfqiEWVV6G8A3oweAy8C22/SDOsBA43PB58FTZXWEolGo88B28WYBocBUTriOkYFFoH/AWkYqJHgOOjFgKX6/w6IRInrOmC7+JLmSZBoNgOR1tsBPanbge285wXH9zgZsT0QiRIR05Vklbd9CRAlp6ngPMBJA9v5LgrsMh4FJIWLqGllVcaLg7rTgah50VBdAlotI+xykHiCQ1H7KMu87b8FcodtTu8HHB9q5dTVnG1k91UkaljvAQwzsF1YSfM1IBqbGNR7JlgDbOe2FaHhZSiJSDRq/TuwXUxJ8wwoTw7ybMXZNga02s5rq3MrkOtCNCqxe8YgQNuFlDQ/AqLGRK9qGbCdzzLxOyBGSzSiGFSY1ViIVNdtTFzmw5AA27ksI/8NZLGyaFidAWwXT9JwSlvyEY1eXwIcmLadyzJzKZAipiKraECyGhc5BSQhLrrlmjUucGUgYh2ukeNrrT4DyaU07Z7t9d+ASPQqMQXHcItdk4Jpg7nKvxHVF+kyU8C3wQXgesDxtgcAsyoM5FHAbAm/BtcABlLyc1xuxO/ZBYpeHHMHcBWwncN2gtfL7kAk2ky9wHbBJA0b4UhiN4DxRby7prFIdxXgGEkMmEKnaAO8PJ5fAduxtyOcOZQ8YaJ+Me/4w8B2sSTNp8FQ2gXQSP0C8M5q+3waMMTiSsC8T50gT9FYcZbMdpztDH8bkUiLCdlsF0nSPAJsi165rOQi8CywfS5L6M0xrxONZ9YSYzU0DwJJxifS4hiP7SJJmh4wUAyjKOr6N46FMSUL84JlIRpydlNtxyLUOAKI2lxcCvG/wHaBJAmN0gcA5QKOH2WVEaIZ6HExNXCa4mzgtcC2f2ETvwFFnywRpaxPANvFkTQseUV9DLTishJ6gpxdTEPfA7Z9Cpsj2T1E4y4DtosjSehdMfjx9AHPtSL3AOYrT1JcAG7bl2CHs9miNhVnxDhWY7swkoQzfmVZVsJ0vwFIQnNAVpkxyoKskmhjcarYdlEIw8Nsns2W8JoIOGtq236e8ObCMI/HAYNv+Zezt0WZGOFxMIhY1IZiFLjtohBGhtH07wBjEQNjGfdl227WMCB3BeA60k8CVp1mlD1j8zgZwL/MErEX+CK4GrAqjm1bWfEVIGoz7QyKEPfUyjAz61iqwBwNbNvLEnqJIeCyly1AI/pHwBqGtu1mASdARG0mVi6xXQxCYywAjeidIO8CEcypxUIjzepEYNt+2rBcWSsUqhUlKIYZ2C4GoTHYPdoTjFbsUtm2kwUPgX8GSerrwLavNGHPwAOiNhHv8u2YXyktbgSjCWg8ENg+nwVcn/k2kIaYi922z7TgzKpU2mkjnQBsF4IwdkbyXJg984/A9tm0YSqeNIs7vAVwZtG277Q4AIjaQBxgzaqMVzvxUzCc8rpJME2NbcF50so6Wv9IIGoDMVJbghWTh+EBnD2ziWEBWazXHMxfAEvWZyFm/HgZ2I4jDTjgL2oDnQpsF4DQPKcBm04GtvenCY3HR0FW2hE8BWzHkgZJpdkWFVhbgTuB7QIQmocpm3mOB4qZKfLwrpaALMVJB2YGtR1LGnwLiEouLifJ0m0fLc8B5mZfDjjjdDY4x8DHfI6zXE+AIubOqsOuNiPFByqPsSsu+ckjc+oPgO140kA8rDbQYmD78bOGsUtcDsIuFNPNMOp+pIhxThZwpo3T2ccBxpFlUTSjUY4CdbF4BjNl2t6XJgOPIUvtClhvkou604T7yCMjrChDcYU7V7rbLvCs4LQ+jRQH/htdDmLTDFCUNXl1BqY/ySPuilkxJJuBqOXFO5PtAs8Crvj/KuCi2jTEyjdPAtu+s+YmUA8i/RmwvSdNvgBEopYXB2FtF3jacByKXb60xbJgRci5xSwOHHifDLKs/EM4xpdmgKhIlIkYOJh17iXW/jsMZCmme2EOdtvxZMUaMB6wXJnt9TQZXORDJGpJ7Q9sF3ha0MtoNsHdWPVhkOdM4lrAYhs3D3guCySxnag0Yml320WeBjRW7J7lqfOB7diygIvKmWBu9YDnsoDxdVsCkailxfGjrJbiMO1HI6lW0tK7AT0d2zGmDQ3VdSDrkIuhouxFopYSQwhYKLUeiJkmjI8pirKoBmSDHha9TNtracFgYB+kIYafMFne6woCj4UkERYjEhVGnwG2xp029Ky4ENr2WlpwkXNaZdy/DZjhkwUpisBdgEHHXLsoEpVGTAHcLkkKmV89DXFM7LfAts88+ROQ4FhRqcSlPkwJbLvgy8Y3QBpioG8WdSsbhWtLRaJSid4BF1PbLvgywfErhnKkIVbUybuklw12U0WiUomDsnkWfMgKZrrYCaShfwG2febNp4FIVCrRYLVDodg0S7czVMK2zzyhx7cbEIlKJRos5lm3XfRlgkY5rSn+rKvhjAZmNZX1kqLSibE6vwO2i75MsChqGuL5YziDbZ95wpAGiegXlU7bgjxSE2cNc/SnoS7AlQu2febJuUAkKp3eA7JO75IHx4I0VAFFTEfNbLMiUel0ELBd8GXjUJCG/hXY9pcnXEXAlNoiUekUA9tFXzYOB2koBLb95QlXLjDnmUhUKnFQtl3KmaWRJPE1oIgzrExCycIeIlGpxER2WS9A5ngPs6zaXkuTI0DS2ho8DGz7yxMaURpTUYuLbjKnt1nDj3+zgPsaqjR73soj4JHdFWYTsL2WJseDpMUSWkVcOB4BUQn0SWD7gdOGZbaKJnoHLCdmO940+Q24cdBzWVAFSYsD20Ws+fhFICqBWNrJ9gOnCYstvBMUTYcA2/Gmzekgj6SBaaSWYeiAbV95wi53WkkKRRnrTGD7kdOEa7qKVvSA3lUepb7YmLi+bemA57KClaVHqprdqNjlt+0rT5h6Oq1F3qKMdSGw/chpw1inImkesB1n2jALJgeDvzvguazgjeN9ICkxDXERlzRxmRCXC4lKoLymoNlAi6J/AnkNFNcLQOTh6ZIvg6TEsAHmEaOnSkM8EgwfySLJ3+VAVBJdBWw/ctqwBD2LtOYtFi7Nq+ozwyfq6U5Yjt/2nrT5JUhyup/paki94MNwMCvpfcB2XEnCMUJRSZSXwSIngjz1RvAzYDu2LGDB1Lqx+BSwvSdtmHX0gyAPZbUEiskERSVRngbrGfBekIeYkeGHwHZcWTGwIdFoZFUDcjBXgqzFvFRZhJBwnI7pmkUlUd7LKH4Psi67xPQn1wPb8WTFn8HApSKdII9o9zoHgCzFepe240gajpGx6ykqiS4Cth86SzhQOwlkoZngHmA7jiwZPNi9FWAAqe29WfAEeDvIQoywtx1DGvwa8NyKSiIOSNp+6Ky5F9CYpCXeZReAvLpdA6F3ZStempXXMRT0dieCNPUtYNt3WlwARCXS54Hth84DGhMuF0my0bDbxawEWcxGjZahsiQcDWzvz5I7ABMYJi2uWf0JsO0zTU4AohJpX2D7ofOE3ZNFgAukXwsaFWfe3gVOBkUyVOQ2wABLm6aAIniAT4NjQBIVdTg++XXAkvi2faUJ1zTuB0QlEht2EdPZEjbeX4GF4BPg/YCxW2xIbPSE8TzsXnFtIi9OFspkuEARMwZwxupDYCjxuxRhfK3O7YDZQxtd1sLlPgosBsxDZdt2FjDN9a5AVCJxQJJBnLYfvGjwAuSsD8e7GCVNGDH9JFgLbJ8pEt8BI6kH2D6bJyvBteAM8FkwB3B1AG92/DsbHAy+CRgq8idg207WPAokaV8JxVX7RUwJUiborXCB9UhiAYdW+C0YpU8vNutkh43AlD1p1V0U5aivgDxd97LDdDr0REYjdnM5W2fbjtAYkrSvpKJrzyygth9daB7OxDairwHbdoTG4MSBqKTiuITtRxeaoxc0Kg9wps62PWF0cCKpG4hKKs5Q5ZFXvMxwbHCsUdZFHHxvJSRpXxvoKGD78YXG+TloJn3OzuApYNu2MDJcWJ1EHJmowNoOFCkOqFXhoLkDmhXT79i2L4zMj4GU9WoDHQhsF4AwOn4BklrIzRQ4eSUXbHW4blTUJroC2C4CYXiuA8zzlKRmAYmRa5xDgahN9FbA9Xy2C0Gw8z3ADKZpaD6w7VOwwyVdeWVRFeWkDwOufbNdEMImGOl9EkhTnGnMM5Vzq8HlWx1A1GaSWcPhYV4rZrvIQhOATIiMDiZClKR9bSqJurZzMcgqS2pdzFPFBb2242llWAiDtQW4uN32eqN8H4jaWEwxIt3DGg+BPAd0mWKnTOs+GdHPfPIzQFILqfOuxiQqgNj1eQzYLpB2gHf/PsCuWd5ijqcyLJBmMsN61aSkypxxRvXjQCTSaW7bMeThMrAnKJJYZYfBkbbjbQWYG2xgrip68bb3Nco6IEn7RJvpCMCuke2CKQscV2EOci4KL7KOA88C23coIswZvzcYLM602t7fKEzFzBUbItFmYm2/U0CrZCsdLZwSPwdMBa0i5r4vetgDay6eCmzVgijm8Ld9rlFYMm5LIBJZxQo3/w7uB7YLqBVgoOEvARMZMmi2VcU0xUUb22JW0nPBP4DhxPfYPt8oZwGRaERx3RsHTi8BrZDLiQ3pVsCuyG6gLKl0GW3/GcBCHHku6eE1sASwEtBI4iLlG4BtO43CMByRqCGxu/gvgF0rLt5NKr6mGWigWLziQsCAWGZZLXO+bxqB6YB5tbIKOOWA9y2AmT4byUXFY2W1I67FZLGLsfJTsDsQicYsJgZkd4DVVlj26WrwAHgOcGDbduE3A7t3zwBW1LkcsNLLQYAGKq21fkUXvzeLW8wDDNDkuGMSNxHeBJh36kfgi4Czc5LSRVQ6cVCUa70Yg8MSUZ8GXwAsm8/CAZcC3i1p3GzwNZaTCgFLS3FKfH9Aj2IyYOI8qZYytJjYbhfATBCsQs1uMb1hGjN2zTgeSUNE6CHzfPM1dvGOB7z5sO4gkwzKEhhRRho37v8BJ35vH912SAsAAAAASUVORK5CYII=;" vertex="1" parent="1">
          <mxGeometry x="320" y="252" width="50" height="30.17" as="geometry" />
        </mxCell>
        <mxCell id="pht8xzdm1uelEmTHXrsV-4" value="" style="verticalLabelPosition=bottom;shadow=0;dashed=0;align=center;html=1;verticalAlign=top;strokeWidth=1;shape=mxgraph.mockup.markup.curlyBrace;strokeColor=#999999;rotation=90;" vertex="1" parent="1">
          <mxGeometry x="330" y="240" width="100" height="20" as="geometry" />
        </mxCell>
        <mxCell id="pht8xzdm1uelEmTHXrsV-5" value="Cellular comms for OTA Updates; Device Registration etc." style="text;html=1;strokeColor=none;fillColor=none;align=center;verticalAlign=middle;whiteSpace=wrap;rounded=0;shadow=0;" vertex="1" parent="1">
          <mxGeometry x="390" y="199" width="90" height="104" as="geometry" />
        </mxCell>
      </root>
    </mxGraphModel>
  </diagram>
  <diagram id="d8ZmUfpzJOCDRxDE4A_W" name="High Level Design">
    <mxGraphModel dx="766" dy="444" grid="1" gridSize="10" guides="1" tooltips="1" connect="1" arrows="1" fold="1" page="1" pageScale="1" pageWidth="827" pageHeight="1169" math="0" shadow="0">
      <root>
        <mxCell id="Zb55xUOWnrpX-30kDDe--0" />
        <mxCell id="Zb55xUOWnrpX-30kDDe--1" parent="Zb55xUOWnrpX-30kDDe--0" />
        <mxCell id="gov2fvM0s0oRuTPrQWyv-91" value="" style="group" vertex="1" connectable="0" parent="Zb55xUOWnrpX-30kDDe--1">
          <mxGeometry x="20" y="59" width="1500" height="540" as="geometry" />
        </mxCell>
        <mxCell id="gov2fvM0s0oRuTPrQWyv-0" value="" style="rounded=0;whiteSpace=wrap;html=1;" vertex="1" parent="gov2fvM0s0oRuTPrQWyv-91">
          <mxGeometry y="41" width="300" height="300" as="geometry" />
        </mxCell>
        <mxCell id="gov2fvM0s0oRuTPrQWyv-1" value="Device @Assembly &lt;br&gt;Station A" style="outlineConnect=0;dashed=0;verticalLabelPosition=bottom;verticalAlign=top;align=center;html=1;shape=mxgraph.aws3.hardware_board;fillColor=#5294CF;gradientColor=none;" vertex="1" parent="gov2fvM0s0oRuTPrQWyv-91">
          <mxGeometry x="220" y="140" width="40" height="51" as="geometry" />
        </mxCell>
        <mxCell id="gov2fvM0s0oRuTPrQWyv-2" value="" style="shape=image;html=1;verticalAlign=top;verticalLabelPosition=bottom;labelBackgroundColor=#ffffff;imageAspect=0;aspect=fixed;image=https://cdn0.iconfinder.com/data/icons/city-elements-18/64/factory-pollution-industry-contamination-industrial-architecture_and_city-buildings-landscape-128.png" vertex="1" parent="gov2fvM0s0oRuTPrQWyv-91">
          <mxGeometry x="20" y="133" width="128" height="128" as="geometry" />
        </mxCell>
        <mxCell id="gov2fvM0s0oRuTPrQWyv-3" value="" style="endArrow=diamondThin;endFill=1;endSize=24;html=1;entryX=1;entryY=0.25;entryDx=0;entryDy=0;" edge="1" parent="gov2fvM0s0oRuTPrQWyv-91" source="gov2fvM0s0oRuTPrQWyv-1" target="gov2fvM0s0oRuTPrQWyv-2">
          <mxGeometry width="160" relative="1" as="geometry">
            <mxPoint x="160" y="81" as="sourcePoint" />
            <mxPoint x="320" y="81" as="targetPoint" />
          </mxGeometry>
        </mxCell>
        <mxCell id="gov2fvM0s0oRuTPrQWyv-4" value="Device @Assembly &lt;br&gt;Station ..N" style="outlineConnect=0;dashed=0;verticalLabelPosition=bottom;verticalAlign=top;align=center;html=1;shape=mxgraph.aws3.hardware_board;fillColor=#5294CF;gradientColor=none;" vertex="1" parent="gov2fvM0s0oRuTPrQWyv-91">
          <mxGeometry x="220" y="230" width="40" height="50" as="geometry" />
        </mxCell>
        <mxCell id="gov2fvM0s0oRuTPrQWyv-5" value="" style="endArrow=diamondThin;endFill=1;endSize=24;html=1;exitX=0;exitY=0.5;exitDx=0;exitDy=0;exitPerimeter=0;" edge="1" parent="gov2fvM0s0oRuTPrQWyv-91" source="gov2fvM0s0oRuTPrQWyv-4">
          <mxGeometry width="160" relative="1" as="geometry">
            <mxPoint x="30" y="291" as="sourcePoint" />
            <mxPoint x="150" y="255" as="targetPoint" />
          </mxGeometry>
        </mxCell>
        <mxCell id="gov2fvM0s0oRuTPrQWyv-9" value="Factory Site" style="text;html=1;strokeColor=none;fillColor=none;align=center;verticalAlign=middle;whiteSpace=wrap;rounded=0;" vertex="1" parent="gov2fvM0s0oRuTPrQWyv-91">
          <mxGeometry x="108" y="341" width="90" height="20" as="geometry" />
        </mxCell>
        <mxCell id="gov2fvM0s0oRuTPrQWyv-10" value="" style="shape=image;html=1;verticalAlign=top;verticalLabelPosition=bottom;labelBackgroundColor=#ffffff;imageAspect=0;aspect=fixed;image=https://cdn4.iconfinder.com/data/icons/vecico-connectivity/288/wifi_Symbol-128.png;shadow=0;" vertex="1" parent="gov2fvM0s0oRuTPrQWyv-91">
          <mxGeometry x="260" y="41" width="38" height="38" as="geometry" />
        </mxCell>
        <mxCell id="gov2fvM0s0oRuTPrQWyv-12" value="" style="endArrow=classic;html=1;exitX=1;exitY=0.5;exitDx=0;exitDy=0;exitPerimeter=0;entryX=0;entryY=0.5;entryDx=0;entryDy=0;entryPerimeter=0;startArrow=classic;startFill=1;" edge="1" parent="gov2fvM0s0oRuTPrQWyv-91" source="gov2fvM0s0oRuTPrQWyv-1">
          <mxGeometry width="50" height="50" relative="1" as="geometry">
            <mxPoint x="300" y="191" as="sourcePoint" />
            <mxPoint x="460" y="165.5" as="targetPoint" />
          </mxGeometry>
        </mxCell>
        <mxCell id="gov2fvM0s0oRuTPrQWyv-14" value="Wireless Comms;&lt;br&gt;HTTP/MQTT" style="edgeLabel;html=1;align=center;verticalAlign=middle;resizable=0;points=[];" vertex="1" connectable="0" parent="gov2fvM0s0oRuTPrQWyv-12">
          <mxGeometry x="-0.1933" y="4" relative="1" as="geometry">
            <mxPoint x="9" as="offset" />
          </mxGeometry>
        </mxCell>
        <mxCell id="gov2fvM0s0oRuTPrQWyv-22" value="" style="rounded=0;whiteSpace=wrap;html=1;shadow=0;" vertex="1" parent="gov2fvM0s0oRuTPrQWyv-91">
          <mxGeometry x="460" y="130" width="140" height="150" as="geometry" />
        </mxCell>
        <mxCell id="gov2fvM0s0oRuTPrQWyv-23" value="" style="endArrow=classic;html=1;exitX=1;exitY=0.5;exitDx=0;exitDy=0;exitPerimeter=0;entryX=0;entryY=0.5;entryDx=0;entryDy=0;entryPerimeter=0;startArrow=classic;startFill=1;" edge="1" parent="gov2fvM0s0oRuTPrQWyv-91">
          <mxGeometry width="50" height="50" relative="1" as="geometry">
            <mxPoint x="260" y="254.5" as="sourcePoint" />
            <mxPoint x="460" y="254.5" as="targetPoint" />
          </mxGeometry>
        </mxCell>
        <mxCell id="gov2fvM0s0oRuTPrQWyv-24" value="Wireless Comms;&lt;br&gt;HTTP/MQTT" style="edgeLabel;html=1;align=center;verticalAlign=middle;resizable=0;points=[];" vertex="1" connectable="0" parent="gov2fvM0s0oRuTPrQWyv-23">
          <mxGeometry x="-0.1933" y="4" relative="1" as="geometry">
            <mxPoint x="9" as="offset" />
          </mxGeometry>
        </mxCell>
        <mxCell id="gov2fvM0s0oRuTPrQWyv-25" value="EDGE Services" style="text;html=1;strokeColor=none;fillColor=none;align=center;verticalAlign=middle;whiteSpace=wrap;rounded=0;shadow=0;" vertex="1" parent="gov2fvM0s0oRuTPrQWyv-91">
          <mxGeometry x="480" y="280" width="110" height="20" as="geometry" />
        </mxCell>
        <mxCell id="gov2fvM0s0oRuTPrQWyv-26" value="Routing" style="rounded=1;whiteSpace=wrap;html=1;shadow=0;" vertex="1" parent="gov2fvM0s0oRuTPrQWyv-91">
          <mxGeometry x="460" y="160" width="60" height="30" as="geometry" />
        </mxCell>
        <mxCell id="gov2fvM0s0oRuTPrQWyv-27" value="Edge ML" style="rounded=1;whiteSpace=wrap;html=1;shadow=0;" vertex="1" parent="gov2fvM0s0oRuTPrQWyv-91">
          <mxGeometry x="540" y="130" width="60" height="30" as="geometry" />
        </mxCell>
        <mxCell id="gov2fvM0s0oRuTPrQWyv-28" value="Security" style="rounded=1;whiteSpace=wrap;html=1;shadow=0;" vertex="1" parent="gov2fvM0s0oRuTPrQWyv-91">
          <mxGeometry x="540" y="190" width="60" height="30" as="geometry" />
        </mxCell>
        <mxCell id="gov2fvM0s0oRuTPrQWyv-29" value="Content Delivery" style="rounded=1;whiteSpace=wrap;html=1;shadow=0;" vertex="1" parent="gov2fvM0s0oRuTPrQWyv-91">
          <mxGeometry x="540" y="250" width="60" height="30" as="geometry" />
        </mxCell>
        <mxCell id="gov2fvM0s0oRuTPrQWyv-30" value="Payload Transform" style="rounded=1;whiteSpace=wrap;html=1;shadow=0;" vertex="1" parent="gov2fvM0s0oRuTPrQWyv-91">
          <mxGeometry x="460" y="220" width="60" height="30" as="geometry" />
        </mxCell>
        <mxCell id="gov2fvM0s0oRuTPrQWyv-32" value="" style="shape=cylinder3;whiteSpace=wrap;html=1;boundedLbl=1;backgroundOutline=1;size=15;shadow=0;rotation=90;" vertex="1" parent="gov2fvM0s0oRuTPrQWyv-91">
          <mxGeometry x="769.68" y="54.18000000000001" width="70.5" height="301.66" as="geometry" />
        </mxCell>
        <mxCell id="gov2fvM0s0oRuTPrQWyv-33" value="Data Ingestion" style="text;html=1;strokeColor=none;fillColor=none;align=center;verticalAlign=middle;whiteSpace=wrap;rounded=0;shadow=0;" vertex="1" parent="gov2fvM0s0oRuTPrQWyv-91">
          <mxGeometry x="724.93" y="241" width="160" height="20" as="geometry" />
        </mxCell>
        <mxCell id="gov2fvM0s0oRuTPrQWyv-34" value="Cleansing" style="rounded=1;whiteSpace=wrap;html=1;shadow=0;" vertex="1" parent="gov2fvM0s0oRuTPrQWyv-91">
          <mxGeometry x="661" y="190" width="56" height="30" as="geometry" />
        </mxCell>
        <mxCell id="gov2fvM0s0oRuTPrQWyv-36" value="Collect Metadata" style="rounded=1;whiteSpace=wrap;html=1;shadow=0;" vertex="1" parent="gov2fvM0s0oRuTPrQWyv-91">
          <mxGeometry x="757" y="190" width="60" height="30" as="geometry" />
        </mxCell>
        <mxCell id="gov2fvM0s0oRuTPrQWyv-37" value="Tagging; Publish" style="rounded=1;whiteSpace=wrap;html=1;shadow=0;" vertex="1" parent="gov2fvM0s0oRuTPrQWyv-91">
          <mxGeometry x="850" y="180" width="67" height="50" as="geometry" />
        </mxCell>
        <mxCell id="gov2fvM0s0oRuTPrQWyv-39" value="" style="edgeStyle=orthogonalEdgeStyle;rounded=0;orthogonalLoop=1;jettySize=auto;html=1;" edge="1" parent="gov2fvM0s0oRuTPrQWyv-91" source="gov2fvM0s0oRuTPrQWyv-34" target="gov2fvM0s0oRuTPrQWyv-36">
          <mxGeometry relative="1" as="geometry" />
        </mxCell>
        <mxCell id="gov2fvM0s0oRuTPrQWyv-40" value="" style="edgeStyle=orthogonalEdgeStyle;rounded=0;orthogonalLoop=1;jettySize=auto;html=1;" edge="1" parent="gov2fvM0s0oRuTPrQWyv-91" source="gov2fvM0s0oRuTPrQWyv-36" target="gov2fvM0s0oRuTPrQWyv-37">
          <mxGeometry relative="1" as="geometry" />
        </mxCell>
        <mxCell id="gov2fvM0s0oRuTPrQWyv-41" value="" style="edgeStyle=elbowEdgeStyle;elbow=horizontal;endArrow=classic;html=1;exitX=1;exitY=0.25;exitDx=0;exitDy=0;entryX=0.297;entryY=0.991;entryDx=0;entryDy=0;entryPerimeter=0;" edge="1" parent="gov2fvM0s0oRuTPrQWyv-91" source="gov2fvM0s0oRuTPrQWyv-22" target="gov2fvM0s0oRuTPrQWyv-32">
          <mxGeometry width="50" height="50" relative="1" as="geometry">
            <mxPoint x="630" y="131" as="sourcePoint" />
            <mxPoint x="637" y="190" as="targetPoint" />
          </mxGeometry>
        </mxCell>
        <mxCell id="gov2fvM0s0oRuTPrQWyv-43" value="Channel" style="edgeLabel;html=1;align=center;verticalAlign=middle;resizable=0;points=[];" vertex="1" connectable="0" parent="gov2fvM0s0oRuTPrQWyv-41">
          <mxGeometry x="-0.533" relative="1" as="geometry">
            <mxPoint y="1" as="offset" />
          </mxGeometry>
        </mxCell>
        <mxCell id="gov2fvM0s0oRuTPrQWyv-42" value="" style="edgeStyle=elbowEdgeStyle;elbow=horizontal;endArrow=classic;html=1;exitX=1;exitY=0.75;exitDx=0;exitDy=0;entryX=0.741;entryY=0.996;entryDx=0;entryDy=0;entryPerimeter=0;" edge="1" parent="gov2fvM0s0oRuTPrQWyv-91" source="gov2fvM0s0oRuTPrQWyv-22" target="gov2fvM0s0oRuTPrQWyv-32">
          <mxGeometry width="50" height="50" relative="1" as="geometry">
            <mxPoint x="602" y="233.5" as="sourcePoint" />
            <mxPoint x="640" y="222" as="targetPoint" />
          </mxGeometry>
        </mxCell>
        <mxCell id="gov2fvM0s0oRuTPrQWyv-44" value="Channel" style="edgeLabel;html=1;align=center;verticalAlign=middle;resizable=0;points=[];" vertex="1" connectable="0" parent="gov2fvM0s0oRuTPrQWyv-42">
          <mxGeometry x="-0.5074" y="-1" relative="1" as="geometry">
            <mxPoint y="1" as="offset" />
          </mxGeometry>
        </mxCell>
        <mxCell id="gov2fvM0s0oRuTPrQWyv-45" value="" style="rounded=0;whiteSpace=wrap;html=1;shadow=0;" vertex="1" parent="gov2fvM0s0oRuTPrQWyv-91">
          <mxGeometry x="1000" y="141" width="140" height="120" as="geometry" />
        </mxCell>
        <mxCell id="gov2fvM0s0oRuTPrQWyv-46" value="Business Rules Execution" style="text;html=1;strokeColor=none;fillColor=none;align=center;verticalAlign=middle;whiteSpace=wrap;rounded=0;shadow=0;" vertex="1" parent="gov2fvM0s0oRuTPrQWyv-91">
          <mxGeometry x="990" y="260" width="160" height="20" as="geometry" />
        </mxCell>
        <mxCell id="gov2fvM0s0oRuTPrQWyv-47" value="Detect Event" style="rounded=1;whiteSpace=wrap;html=1;shadow=0;" vertex="1" parent="gov2fvM0s0oRuTPrQWyv-91">
          <mxGeometry x="1000" y="190" width="56" height="30" as="geometry" />
        </mxCell>
        <mxCell id="gov2fvM0s0oRuTPrQWyv-51" value="" style="edgeStyle=orthogonalEdgeStyle;rounded=0;orthogonalLoop=1;jettySize=auto;html=1;" edge="1" parent="gov2fvM0s0oRuTPrQWyv-91" source="gov2fvM0s0oRuTPrQWyv-37" target="gov2fvM0s0oRuTPrQWyv-47">
          <mxGeometry relative="1" as="geometry" />
        </mxCell>
        <mxCell id="gov2fvM0s0oRuTPrQWyv-48" value="Trigger Action" style="rounded=1;whiteSpace=wrap;html=1;shadow=0;" vertex="1" parent="gov2fvM0s0oRuTPrQWyv-91">
          <mxGeometry x="1084" y="190" width="56" height="30" as="geometry" />
        </mxCell>
        <mxCell id="gov2fvM0s0oRuTPrQWyv-50" value="Rules Engine" style="rounded=1;whiteSpace=wrap;html=1;shadow=0;" vertex="1" parent="gov2fvM0s0oRuTPrQWyv-91">
          <mxGeometry x="1042" y="111" width="56" height="30" as="geometry" />
        </mxCell>
        <mxCell id="gov2fvM0s0oRuTPrQWyv-52" value="" style="endArrow=classic;html=1;exitX=1;exitY=0.5;exitDx=0;exitDy=0;" edge="1" parent="gov2fvM0s0oRuTPrQWyv-91" source="gov2fvM0s0oRuTPrQWyv-47">
          <mxGeometry width="50" height="50" relative="1" as="geometry">
            <mxPoint x="1050" y="241" as="sourcePoint" />
            <mxPoint x="1090" y="205" as="targetPoint" />
          </mxGeometry>
        </mxCell>
        <mxCell id="gov2fvM0s0oRuTPrQWyv-53" value="Event Handler" style="rounded=0;whiteSpace=wrap;html=1;shadow=0;" vertex="1" parent="gov2fvM0s0oRuTPrQWyv-91">
          <mxGeometry x="840.18" y="341" width="140" height="49" as="geometry" />
        </mxCell>
        <mxCell id="gov2fvM0s0oRuTPrQWyv-81" style="edgeStyle=orthogonalEdgeStyle;rounded=0;orthogonalLoop=1;jettySize=auto;html=1;entryX=0.5;entryY=1;entryDx=0;entryDy=0;" edge="1" parent="gov2fvM0s0oRuTPrQWyv-91" source="gov2fvM0s0oRuTPrQWyv-54" target="gov2fvM0s0oRuTPrQWyv-25">
          <mxGeometry relative="1" as="geometry" />
        </mxCell>
        <mxCell id="gov2fvM0s0oRuTPrQWyv-54" value="Notification Channels" style="rounded=0;whiteSpace=wrap;html=1;shadow=0;" vertex="1" parent="gov2fvM0s0oRuTPrQWyv-91">
          <mxGeometry x="640" y="341" width="140" height="49" as="geometry" />
        </mxCell>
        <mxCell id="gov2fvM0s0oRuTPrQWyv-56" value="" style="edgeStyle=orthogonalEdgeStyle;rounded=0;orthogonalLoop=1;jettySize=auto;html=1;" edge="1" parent="gov2fvM0s0oRuTPrQWyv-91" source="gov2fvM0s0oRuTPrQWyv-53" target="gov2fvM0s0oRuTPrQWyv-54">
          <mxGeometry relative="1" as="geometry" />
        </mxCell>
        <mxCell id="gov2fvM0s0oRuTPrQWyv-55" value="" style="edgeStyle=elbowEdgeStyle;elbow=horizontal;endArrow=classic;html=1;exitX=1;exitY=0.75;exitDx=0;exitDy=0;entryX=1;entryY=0.5;entryDx=0;entryDy=0;" edge="1" parent="gov2fvM0s0oRuTPrQWyv-91" source="gov2fvM0s0oRuTPrQWyv-48" target="gov2fvM0s0oRuTPrQWyv-53">
          <mxGeometry width="50" height="50" relative="1" as="geometry">
            <mxPoint x="1140" y="251" as="sourcePoint" />
            <mxPoint x="1190" y="201" as="targetPoint" />
            <Array as="points">
              <mxPoint x="1160" y="281" />
            </Array>
          </mxGeometry>
        </mxCell>
        <mxCell id="gov2fvM0s0oRuTPrQWyv-59" value="" style="rounded=0;whiteSpace=wrap;html=1;shadow=0;" vertex="1" parent="gov2fvM0s0oRuTPrQWyv-91">
          <mxGeometry x="1220" y="141" width="120" height="120" as="geometry" />
        </mxCell>
        <mxCell id="gov2fvM0s0oRuTPrQWyv-68" value="" style="edgeStyle=orthogonalEdgeStyle;rounded=0;orthogonalLoop=1;jettySize=auto;html=1;entryX=0;entryY=0.5;entryDx=0;entryDy=0;" edge="1" parent="gov2fvM0s0oRuTPrQWyv-91" source="gov2fvM0s0oRuTPrQWyv-45" target="gov2fvM0s0oRuTPrQWyv-59">
          <mxGeometry relative="1" as="geometry" />
        </mxCell>
        <mxCell id="gov2fvM0s0oRuTPrQWyv-60" value="Persistence" style="text;html=1;strokeColor=none;fillColor=none;align=center;verticalAlign=middle;whiteSpace=wrap;rounded=0;shadow=0;" vertex="1" parent="gov2fvM0s0oRuTPrQWyv-91">
          <mxGeometry x="1260" y="261" width="40" height="20" as="geometry" />
        </mxCell>
        <mxCell id="gov2fvM0s0oRuTPrQWyv-61" value="Time series data" style="rounded=1;whiteSpace=wrap;html=1;shadow=0;" vertex="1" parent="gov2fvM0s0oRuTPrQWyv-91">
          <mxGeometry x="1244" y="150" width="66" height="30" as="geometry" />
        </mxCell>
        <mxCell id="gov2fvM0s0oRuTPrQWyv-62" value="Document Store" style="rounded=1;whiteSpace=wrap;html=1;shadow=0;" vertex="1" parent="gov2fvM0s0oRuTPrQWyv-91">
          <mxGeometry x="1244" y="220" width="66" height="30" as="geometry" />
        </mxCell>
        <mxCell id="gov2fvM0s0oRuTPrQWyv-63" value="&lt;h1&gt;&lt;font style=&quot;font-size: 12px&quot;&gt;Data Meta Info&lt;/font&gt;&lt;/h1&gt;&lt;p&gt;e.g. description, data types, units, stability, volatility etc.&lt;/p&gt;" style="text;html=1;strokeColor=#666666;fillColor=#f5f5f5;spacing=5;spacingTop=-20;whiteSpace=wrap;overflow=hidden;rounded=0;shadow=0;fontColor=#333333;" vertex="1" parent="gov2fvM0s0oRuTPrQWyv-91">
          <mxGeometry x="724.93" y="83.5" width="165.07" height="85" as="geometry" />
        </mxCell>
        <mxCell id="gov2fvM0s0oRuTPrQWyv-65" value="Object Store" style="rounded=1;whiteSpace=wrap;html=1;shadow=0;" vertex="1" parent="gov2fvM0s0oRuTPrQWyv-91">
          <mxGeometry x="1244" y="185" width="66" height="30" as="geometry" />
        </mxCell>
        <mxCell id="gov2fvM0s0oRuTPrQWyv-66" value="Data lake" style="rounded=0;whiteSpace=wrap;html=1;shadow=0;" vertex="1" parent="gov2fvM0s0oRuTPrQWyv-91">
          <mxGeometry x="1380" y="141" width="120" height="120" as="geometry" />
        </mxCell>
        <mxCell id="gov2fvM0s0oRuTPrQWyv-67" value="" style="edgeStyle=orthogonalEdgeStyle;rounded=0;orthogonalLoop=1;jettySize=auto;html=1;" edge="1" parent="gov2fvM0s0oRuTPrQWyv-91" source="gov2fvM0s0oRuTPrQWyv-59" target="gov2fvM0s0oRuTPrQWyv-66">
          <mxGeometry relative="1" as="geometry" />
        </mxCell>
        <mxCell id="gov2fvM0s0oRuTPrQWyv-70" value="Machine Learning - Train &amp;amp; Deploy" style="rounded=0;whiteSpace=wrap;html=1;shadow=0;" vertex="1" parent="gov2fvM0s0oRuTPrQWyv-91">
          <mxGeometry x="1380" y="341" width="120" height="79" as="geometry" />
        </mxCell>
        <mxCell id="gov2fvM0s0oRuTPrQWyv-71" value="" style="edgeStyle=orthogonalEdgeStyle;rounded=0;orthogonalLoop=1;jettySize=auto;html=1;" edge="1" parent="gov2fvM0s0oRuTPrQWyv-91" source="gov2fvM0s0oRuTPrQWyv-66" target="gov2fvM0s0oRuTPrQWyv-70">
          <mxGeometry relative="1" as="geometry" />
        </mxCell>
        <mxCell id="gov2fvM0s0oRuTPrQWyv-72" value="DigitalTwin" style="rounded=0;whiteSpace=wrap;html=1;shadow=0;" vertex="1" parent="gov2fvM0s0oRuTPrQWyv-91">
          <mxGeometry x="1221" y="341" width="120" height="79" as="geometry" />
        </mxCell>
        <mxCell id="gov2fvM0s0oRuTPrQWyv-73" value="" style="edgeStyle=orthogonalEdgeStyle;rounded=0;orthogonalLoop=1;jettySize=auto;html=1;" edge="1" parent="gov2fvM0s0oRuTPrQWyv-91" source="gov2fvM0s0oRuTPrQWyv-70" target="gov2fvM0s0oRuTPrQWyv-72">
          <mxGeometry relative="1" as="geometry" />
        </mxCell>
        <mxCell id="gov2fvM0s0oRuTPrQWyv-74" value="Prognostic" style="rounded=0;whiteSpace=wrap;html=1;shadow=0;" vertex="1" parent="gov2fvM0s0oRuTPrQWyv-91">
          <mxGeometry x="990" y="420" width="140" height="49" as="geometry" />
        </mxCell>
        <mxCell id="gov2fvM0s0oRuTPrQWyv-76" style="edgeStyle=orthogonalEdgeStyle;rounded=0;orthogonalLoop=1;jettySize=auto;html=1;entryX=1;entryY=0.5;entryDx=0;entryDy=0;" edge="1" parent="gov2fvM0s0oRuTPrQWyv-91" source="gov2fvM0s0oRuTPrQWyv-72" target="gov2fvM0s0oRuTPrQWyv-74">
          <mxGeometry relative="1" as="geometry" />
        </mxCell>
        <mxCell id="gov2fvM0s0oRuTPrQWyv-75" value="Feature/Config Management" style="rounded=0;whiteSpace=wrap;html=1;shadow=0;" vertex="1" parent="gov2fvM0s0oRuTPrQWyv-91">
          <mxGeometry x="990" y="491" width="140" height="49" as="geometry" />
        </mxCell>
        <mxCell id="gov2fvM0s0oRuTPrQWyv-77" style="edgeStyle=orthogonalEdgeStyle;rounded=0;orthogonalLoop=1;jettySize=auto;html=1;entryX=1;entryY=0.5;entryDx=0;entryDy=0;" edge="1" parent="gov2fvM0s0oRuTPrQWyv-91" source="gov2fvM0s0oRuTPrQWyv-72" target="gov2fvM0s0oRuTPrQWyv-75">
          <mxGeometry relative="1" as="geometry" />
        </mxCell>
        <mxCell id="gov2fvM0s0oRuTPrQWyv-82" style="edgeStyle=orthogonalEdgeStyle;rounded=0;orthogonalLoop=1;jettySize=auto;html=1;entryX=0.25;entryY=1;entryDx=0;entryDy=0;" edge="1" parent="gov2fvM0s0oRuTPrQWyv-91" source="gov2fvM0s0oRuTPrQWyv-78" target="gov2fvM0s0oRuTPrQWyv-25">
          <mxGeometry relative="1" as="geometry" />
        </mxCell>
        <mxCell id="gov2fvM0s0oRuTPrQWyv-78" value="Content Delivery Channels" style="rounded=0;whiteSpace=wrap;html=1;shadow=0;" vertex="1" parent="gov2fvM0s0oRuTPrQWyv-91">
          <mxGeometry x="640" y="461" width="140" height="49" as="geometry" />
        </mxCell>
        <mxCell id="gov2fvM0s0oRuTPrQWyv-79" style="edgeStyle=orthogonalEdgeStyle;rounded=0;orthogonalLoop=1;jettySize=auto;html=1;entryX=1;entryY=0.5;entryDx=0;entryDy=0;" edge="1" parent="gov2fvM0s0oRuTPrQWyv-91" source="gov2fvM0s0oRuTPrQWyv-74" target="gov2fvM0s0oRuTPrQWyv-78">
          <mxGeometry relative="1" as="geometry" />
        </mxCell>
        <mxCell id="gov2fvM0s0oRuTPrQWyv-80" style="edgeStyle=orthogonalEdgeStyle;rounded=0;orthogonalLoop=1;jettySize=auto;html=1;entryX=1;entryY=0.5;entryDx=0;entryDy=0;" edge="1" parent="gov2fvM0s0oRuTPrQWyv-91" source="gov2fvM0s0oRuTPrQWyv-75" target="gov2fvM0s0oRuTPrQWyv-78">
          <mxGeometry relative="1" as="geometry" />
        </mxCell>
        <mxCell id="gov2fvM0s0oRuTPrQWyv-83" value="Data Enrichment" style="rounded=0;whiteSpace=wrap;html=1;shadow=0;" vertex="1" parent="gov2fvM0s0oRuTPrQWyv-91">
          <mxGeometry x="1220" y="71" width="120" height="30" as="geometry" />
        </mxCell>
        <mxCell id="gov2fvM0s0oRuTPrQWyv-84" value="" style="edgeStyle=orthogonalEdgeStyle;rounded=0;orthogonalLoop=1;jettySize=auto;html=1;startArrow=classic;startFill=1;" edge="1" parent="gov2fvM0s0oRuTPrQWyv-91" source="gov2fvM0s0oRuTPrQWyv-59" target="gov2fvM0s0oRuTPrQWyv-83">
          <mxGeometry relative="1" as="geometry" />
        </mxCell>
        <mxCell id="gov2fvM0s0oRuTPrQWyv-85" value="Track &amp;amp; Audit" style="rounded=0;whiteSpace=wrap;html=1;shadow=0;" vertex="1" parent="gov2fvM0s0oRuTPrQWyv-91">
          <mxGeometry x="1220" width="120" height="30" as="geometry" />
        </mxCell>
        <mxCell id="gov2fvM0s0oRuTPrQWyv-86" value="" style="edgeStyle=orthogonalEdgeStyle;rounded=0;orthogonalLoop=1;jettySize=auto;html=1;startArrow=classic;startFill=1;" edge="1" parent="gov2fvM0s0oRuTPrQWyv-91" source="gov2fvM0s0oRuTPrQWyv-83" target="gov2fvM0s0oRuTPrQWyv-85">
          <mxGeometry relative="1" as="geometry" />
        </mxCell>
        <mxCell id="gov2fvM0s0oRuTPrQWyv-87" value="API Backbone" style="rounded=0;whiteSpace=wrap;html=1;shadow=0;" vertex="1" parent="gov2fvM0s0oRuTPrQWyv-91">
          <mxGeometry x="1020" width="120" height="30" as="geometry" />
        </mxCell>
        <mxCell id="gov2fvM0s0oRuTPrQWyv-89" value="" style="edgeStyle=orthogonalEdgeStyle;rounded=0;orthogonalLoop=1;jettySize=auto;html=1;startArrow=classic;startFill=1;" edge="1" parent="gov2fvM0s0oRuTPrQWyv-91" source="gov2fvM0s0oRuTPrQWyv-85" target="gov2fvM0s0oRuTPrQWyv-87">
          <mxGeometry relative="1" as="geometry" />
        </mxCell>
        <mxCell id="gov2fvM0s0oRuTPrQWyv-88" value="API Gateway" style="rounded=0;whiteSpace=wrap;html=1;shadow=0;" vertex="1" parent="gov2fvM0s0oRuTPrQWyv-91">
          <mxGeometry x="840.1800000000001" width="120" height="30" as="geometry" />
        </mxCell>
        <mxCell id="gov2fvM0s0oRuTPrQWyv-90" value="" style="edgeStyle=orthogonalEdgeStyle;rounded=0;orthogonalLoop=1;jettySize=auto;html=1;startArrow=classic;startFill=1;" edge="1" parent="gov2fvM0s0oRuTPrQWyv-91" source="gov2fvM0s0oRuTPrQWyv-87" target="gov2fvM0s0oRuTPrQWyv-88">
          <mxGeometry relative="1" as="geometry" />
        </mxCell>
      </root>
    </mxGraphModel>
  </diagram>
</mxfile>
